<svg xmlns="http://www.w3.org/2000/svg" xmlns:xlink="http://www.w3.org/1999/xlink" width="44.811" height="43.901" viewBox="0 0 44.811 43.901"><defs><style>.a{fill:none;}.b{clip-path:url(#a);}.c{clip-path:url(#b);}</style><clipPath id="a"><path class="a" d="M570.912-91.877a8.027,8.027,0,0,0-2.516-1.617,17.075,17.075,0,0,0-4.943-9.433,17.954,17.954,0,0,0-25,0,17.211,17.211,0,0,0-4.554,7.681,2.656,2.656,0,0,0-1.447.366,2.542,2.542,0,0,0-1.277,2.207v6.77a1.716,1.716,0,0,0-1.05,1.571v3.782a1.731,1.731,0,0,0-1.575,1.707v12.178a2.6,2.6,0,0,0,2.625,2.573h8.051a2.6,2.6,0,0,0,2.625-2.573v-9.156a17.683,17.683,0,0,0,6.476,2.278v4.3h-.423a4.343,4.343,0,0,0-4.381,4.293.867.867,0,0,0,.875.858h13.108a.867.867,0,0,0,.875-.858A4.343,4.343,0,0,0,554-69.243h-.422v-4.3a17.673,17.673,0,0,0,6.853-2.507v8.569a3.427,3.427,0,0,0,3.458,3.388h2.582a3.427,3.427,0,0,0,3.458-3.388v-10.1l2.6-5.174A7.72,7.72,0,0,0,570.912-91.877Zm-37.986-.8a.843.843,0,0,1,.426-.736.876.876,0,0,1,.863-.02l2.8,1.47a.854.854,0,0,1,.462.756v5.155h-4.55Zm-1.05,8.341h6.651v3.773h-6.651ZM540.1-66.665a.867.867,0,0,1-.875.858h-8.051a.867.867,0,0,1-.875-.858V-78.843h9.8v12.178Zm13.9-.863a2.632,2.632,0,0,1,2.481,1.721H545.425a2.632,2.632,0,0,1,2.481-1.721H554Zm-3.923-1.715v-4.132q.433.02.869.021l.24,0c.214,0,.428-.01.641-.02v4.133Zm-8.226-8.623v-.977a1.731,1.731,0,0,0-1.575-1.707v-3.782a1.716,1.716,0,0,0-1.05-1.571v-5.3a2.562,2.562,0,0,0-1.385-2.268l-2.287-1.2a15.5,15.5,0,0,1,4.137-7.044,16.176,16.176,0,0,1,22.524,0,15.4,15.4,0,0,1,4.3,7.713,8.266,8.266,0,0,0-1.179-.085,8.252,8.252,0,0,0-1.333.11,13.229,13.229,0,0,0-4.479-6.893,13.668,13.668,0,0,0-8.573-3.016,13.684,13.684,0,0,0-6.74,1.768,13.432,13.432,0,0,0-4.822,4.651.848.848,0,0,0,.3,1.177.885.885,0,0,0,1.2-.294,11.694,11.694,0,0,1,10.062-5.587,11.867,11.867,0,0,1,3.253.454l-6.458,6.329a.845.845,0,0,0,0,1.213.881.881,0,0,0,.619.251.882.882,0,0,0,.619-.251L556-101.045A11.852,11.852,0,0,1,559.029-99l-11.244,11.02a.845.845,0,0,0,0,1.213.881.881,0,0,0,.619.251.881.881,0,0,0,.619-.251L560.208-97.73a11.3,11.3,0,0,1,2.113,4.218,8.026,8.026,0,0,0-2.556,1.635l-.1.094a7.752,7.752,0,0,0-1.706,8.941l.477,1.013a11.843,11.843,0,0,1-7.482,2.643,11.856,11.856,0,0,1-6.354-1.831.886.886,0,0,0-1.21.255.847.847,0,0,0,.26,1.186,13.629,13.629,0,0,0,7.3,2.106,13.621,13.621,0,0,0,8.238-2.755l1.05,2.23A16.314,16.314,0,0,1,541.853-77.867Zm26.326,10.386a1.692,1.692,0,0,1-1.707,1.673H563.89a1.692,1.692,0,0,1-1.707-1.673v-5.371h6v5.371Zm0-7.086h-6v-2.373h6Zm2.782-8.947-2.443,4.859h-.449v-3.522a.867.867,0,0,0-.875-.858.867.867,0,0,0-.875.858v3.522h-4.459l-2.31-4.906a6.06,6.06,0,0,1,1.334-6.989l.1-.094a6.334,6.334,0,0,1,8.714,0A6.035,6.035,0,0,1,570.961-83.514Z"/></clipPath><clipPath id="b"><path class="a" d="M2,3113H1442V-816H2Z"/></clipPath></defs><g class="b" transform="translate(-528.551 107.993)"><g class="c"><path d="M523.551-112.993h54.811v53.9H523.551Z"/></g></g></svg>