<svg xmlns="http://www.w3.org/2000/svg" width="32" height="32" viewBox="0 0 32 32"><defs><style>.a{fill:#fff;stroke:#ccc;}.b{fill:none;}.c{fill:#e72323;}.d{stroke:none;}</style></defs><g transform="translate(-1328 -324)"><g class="a" transform="translate(1328 324)"><rect class="d" width="32" height="32" rx="6"/><rect class="b" x="0.5" y="0.5" width="31" height="31" rx="5.5"/></g><rect class="b" width="16" height="16" transform="translate(1336 332)"/><path class="c" d="M1346.666,346h-5.333a1.334,1.334,0,0,1-1.333-1.333V338a1.334,1.334,0,0,1,1.333-1.333h5.333A1.335,1.335,0,0,1,1348,338v6.667A1.335,1.335,0,0,1,1346.666,346ZM1342,338a.67.67,0,0,0-.67.67V344a.671.671,0,0,0,.67.671h3.99a.671.671,0,0,0,.671-.671v-5.33a.671.671,0,0,0-.671-.67Zm6-2h-8a.666.666,0,1,1,0-1.333h1.667l.473-.473a.673.673,0,0,1,.466-.194h2.786a.674.674,0,0,1,.467.194l.473.473H1348a.666.666,0,0,1,0,1.333Z"/></g></svg>