<svg xmlns="http://www.w3.org/2000/svg" width="15.897" height="18.167" viewBox="0 0 15.897 18.167"><defs><style>.a{fill:#686794;}</style></defs><path class="a" d="M0,16.464a1.7,1.7,0,0,0,1.7,1.7h12.49a1.7,1.7,0,0,0,1.7-1.7V6.813H0ZM11.355,9.51a.427.427,0,0,1,.426-.426H13.2a.427.427,0,0,1,.426.426v1.419a.427.427,0,0,1-.426.426H11.78a.427.427,0,0,1-.426-.426Zm0,4.542a.427.427,0,0,1,.426-.426H13.2a.427.427,0,0,1,.426.426v1.419a.427.427,0,0,1-.426.426H11.78a.427.427,0,0,1-.426-.426ZM6.813,9.51a.427.427,0,0,1,.426-.426H8.658a.427.427,0,0,1,.426.426v1.419a.427.427,0,0,1-.426.426H7.239a.427.427,0,0,1-.426-.426Zm0,4.542a.427.427,0,0,1,.426-.426H8.658a.427.427,0,0,1,.426.426v1.419a.427.427,0,0,1-.426.426H7.239a.427.427,0,0,1-.426-.426ZM2.271,9.51A.427.427,0,0,1,2.7,9.084H4.116a.427.427,0,0,1,.426.426v1.419a.427.427,0,0,1-.426.426H2.7a.427.427,0,0,1-.426-.426Zm0,4.542a.427.427,0,0,1,.426-.426H4.116a.427.427,0,0,1,.426.426v1.419a.427.427,0,0,1-.426.426H2.7a.427.427,0,0,1-.426-.426ZM14.193,2.271h-1.7V.568A.569.569,0,0,0,11.922,0H10.787a.569.569,0,0,0-.568.568v1.7H5.677V.568A.569.569,0,0,0,5.11,0H3.974a.569.569,0,0,0-.568.568v1.7H1.7A1.7,1.7,0,0,0,0,3.974v1.7H15.9v-1.7A1.7,1.7,0,0,0,14.193,2.271Z"/></svg>