<svg xmlns="http://www.w3.org/2000/svg" width="21.998" height="22" viewBox="0 0 21.998 22"><defs><style>.a{fill:#00b2ae;}</style></defs><path class="a" d="M16.5,22a1.1,1.1,0,1,1,1.1-1.1A1.1,1.1,0,0,1,16.5,22ZM9.9,22A1.1,1.1,0,1,1,11,20.9,1.1,1.1,0,0,1,9.9,22Zm8.8-4.4H7.7a3.3,3.3,0,0,1-1.388-6.3L3.581,2.2H1.1A1.1,1.1,0,0,1,1.1,0H4.4A1.092,1.092,0,0,1,5.452.785L5.877,2.2h15.03a1.018,1.018,0,0,1,.239.029l.009,0A1.1,1.1,0,0,1,22,3.242a1.157,1.157,0,0,1-.027.307l0,.009a1.157,1.157,0,0,1-.091.247l-4.394,8.788a1.108,1.108,0,0,1-.984.607H7.7a1.1,1.1,0,1,0,0,2.2h11a1.1,1.1,0,0,1,0,2.2ZM6.538,4.4h0L8.518,11h7.3l3.3-6.6Z"/></svg>