<svg xmlns="http://www.w3.org/2000/svg" width="41.184" height="41.184" viewBox="0 0 41.184 41.184"><defs><style>.a{fill:#00b2ae;}</style></defs><path class="a" d="M23.967,3.375A20.592,20.592,0,1,0,44.559,23.967,20.589,20.589,0,0,0,23.967,3.375Zm10.543,14.9L21.274,31.57h-.01a1.788,1.788,0,0,1-1.148.544,1.733,1.733,0,0,1-1.158-.564l-5.544-5.544a.394.394,0,0,1,0-.564l1.762-1.762a.383.383,0,0,1,.554,0l4.4,4.4L32.2,15.908a.391.391,0,0,1,.277-.119h0a.359.359,0,0,1,.277.119L34.49,17.7A.39.39,0,0,1,34.51,18.274Z" transform="translate(-3.375 -3.375)"/></svg>