<svg xmlns="http://www.w3.org/2000/svg" width="23.467" height="22" viewBox="0 0 23.467 22"><defs><style>.a{fill:#00b2ae;}</style></defs><g transform="translate(0 -16)"><g transform="translate(7.333 16)"><g transform="translate(0 0)"><path class="a" d="M168.067,16c-3.91,0-8.067,1.285-8.067,3.667V22.6a.733.733,0,0,0,1.467,0v-.764a15.293,15.293,0,0,0,13.2,0V22.6c0,.717-1.8,1.861-5.195,2.144a.733.733,0,0,0,.06,1.464c.022,0,.041,0,.063,0a11.752,11.752,0,0,0,5.072-1.456v.785c0,.626-1.329,1.527-3.794,1.962A.733.733,0,0,0,171,28.951a.64.64,0,0,0,.129-.012,9.8,9.8,0,0,0,3.539-1.238v.766c0,.626-1.329,1.527-3.794,1.962A.733.733,0,0,0,171,31.884a.64.64,0,0,0,.129-.012,9.824,9.824,0,0,0,3.539-1.238V31.4c0,.626-1.329,1.527-3.794,1.962A.733.733,0,0,0,171,34.817a.64.64,0,0,0,.129-.012,9.824,9.824,0,0,0,3.539-1.238v.766c0,.717-1.8,1.861-5.195,2.144a.733.733,0,0,0,.06,1.464c.022,0,.041,0,.063,0,3.255-.273,6.538-1.492,6.538-3.605V19.667C176.133,17.285,171.977,16,168.067,16Zm0,5.867c-4.029,0-6.6-1.3-6.6-2.2s2.571-2.2,6.6-2.2,6.6,1.3,6.6,2.2S172.1,21.867,168.067,21.867Z" transform="translate(-160 -16)"/></g></g><g transform="translate(0 24.8)"><path class="a" d="M8.067,208C4.157,208,0,209.285,0,211.667v5.867c0,2.382,4.157,3.667,8.067,3.667s8.067-1.285,8.067-3.667v-5.867C16.133,209.285,11.977,208,8.067,208Zm6.6,9.533c0,.9-2.571,2.2-6.6,2.2s-6.6-1.3-6.6-2.2v-.764a13.307,13.307,0,0,0,6.6,1.5,13.307,13.307,0,0,0,6.6-1.5Zm0-2.933c0,.9-2.571,2.2-6.6,2.2s-6.6-1.3-6.6-2.2v-.764a13.307,13.307,0,0,0,6.6,1.5,13.307,13.307,0,0,0,6.6-1.5Zm-6.6-.733c-4.029,0-6.6-1.3-6.6-2.2s2.571-2.2,6.6-2.2,6.6,1.3,6.6,2.2S12.1,213.867,8.067,213.867Z" transform="translate(0 -208)"/></g></g></svg>