<svg xmlns="http://www.w3.org/2000/svg" width="66.527" height="66.527" viewBox="0 0 66.527 66.527"><defs><style>.a{fill:#00b2ae;}</style></defs><g transform="translate(0)"><g transform="translate(0 0)"><path d="M66.527,20.135V16.892a1.3,1.3,0,0,0-.09-.475L63.668,9.369V4.418A4.423,4.423,0,0,0,59.251,0H7.276A4.423,4.423,0,0,0,2.858,4.418V9.369L.09,16.417a1.3,1.3,0,0,0-.09.475v3.243a6.039,6.039,0,0,0,2.858,5.193V56.652H1.3a1.3,1.3,0,0,0-1.3,1.3v7.276a1.3,1.3,0,0,0,1.3,1.3H65.228a1.3,1.3,0,0,0,1.3-1.3V57.952a1.3,1.3,0,0,0-1.3-1.3h-1.56V25.329A6.039,6.039,0,0,0,66.527,20.135ZM59.9,23.773a3.721,3.721,0,0,1-4.028-3.638V18.191h8.056v1.944A3.721,3.721,0,0,1,59.9,23.773Zm-6.627-3.638a3.721,3.721,0,0,1-4.028,3.638,3.721,3.721,0,0,1-4.028-3.638V18.191h8.056Zm-10.655,0a3.721,3.721,0,0,1-4.028,3.638,3.721,3.721,0,0,1-4.028-3.638V18.191h8.056Zm-10.655,0a3.721,3.721,0,0,1-4.028,3.638,3.721,3.721,0,0,1-4.028-3.638V18.191h8.056Zm-10.655,0a3.721,3.721,0,0,1-4.028,3.638,3.721,3.721,0,0,1-4.028-3.638V18.191H21.31ZM7.276,2.6H59.251A1.821,1.821,0,0,1,61.07,4.418v3.9H39.11a1.3,1.3,0,0,0,0,2.6H61.483l1.838,4.678H3.206l1.837-4.678H27.416a1.3,1.3,0,1,0,0-2.6H5.457v-3.9A1.821,1.821,0,0,1,7.276,2.6ZM2.6,18.191h8.056v1.944a3.721,3.721,0,0,1-4.028,3.638A3.721,3.721,0,0,1,2.6,20.135Zm0,41.06h34.18l2.7,4.678H2.6Zm40.7-7.1,4.5,7.79-5.713,3.3-4.5-7.79a1.3,1.3,0,0,0-1.775-.476l-1.247.72V42.361l11.547,6.667-2.336,1.349A1.3,1.3,0,0,0,43.3,52.151ZM63.929,63.929H46.087l4.133-2.386a1.3,1.3,0,0,0,.476-1.775l-.3-.517H63.929ZM61.07,56.652H48.9l-2.7-4.675,3.16-1.825a1.3,1.3,0,0,0,0-2.25L33.913,38.985a1.3,1.3,0,0,0-1.949,1.125V56.652H5.457V26.281a7.662,7.662,0,0,0,1.17.09,6.688,6.688,0,0,0,5.327-2.436,6.688,6.688,0,0,0,5.327,2.436,6.688,6.688,0,0,0,5.327-2.436,6.688,6.688,0,0,0,5.327,2.436,6.688,6.688,0,0,0,5.327-2.436,7.043,7.043,0,0,0,10.655,0,7.043,7.043,0,0,0,10.655,0A6.688,6.688,0,0,0,59.9,26.372a7.653,7.653,0,0,0,1.169-.09Z" transform="translate(0 0)"/><path class="a" d="M177.206,231.89a1.3,1.3,0,1,0-1.838,1.838l4.461,4.461a1.3,1.3,0,1,0,1.838-1.838Z" transform="translate(-152.251 -201.428)"/><path class="a" d="M247.3,221.5a1.3,1.3,0,0,0-1.3,1.3v3.7a1.3,1.3,0,1,0,2.6,0v-3.7A1.3,1.3,0,0,0,247.3,221.5Z" transform="translate(-214.036 -192.717)"/><path class="a" d="M161.428,302.525H157.3a1.3,1.3,0,0,0,0,2.6h4.129a1.3,1.3,0,1,0,0-2.6Z" transform="translate(-135.73 -263.216)"/><path class="a" d="M247.3,66.6a1.3,1.3,0,1,0-.919-.381A1.309,1.309,0,0,0,247.3,66.6Z" transform="translate(-214.036 -55.684)"/></g></g></svg>