<svg xmlns="http://www.w3.org/2000/svg" width="619.619" height="472.312" viewBox="0 0 619.619 472.312"><defs><style>.a{fill:#ecf0f8;}.b,.h,.j,.k,.l,.m,.q,.u,.v{fill:none;}.b{stroke:#ced9ed;}.b,.l,.m,.q,.u,.v{stroke-miterlimit:10;}.b,.l,.q{stroke-width:0.795px;}.c{fill:#ced9ed;}.d{fill:#f4b73b;}.e{fill:#b9c8e4;}.f{fill:#efb348;}.g{fill:#ffdc50;}.h{stroke:#ffcd68;}.i{fill:#ffc74f;}.j,.l{stroke:#262626;}.k{stroke:#000;}.l{stroke-linejoin:round;}.m,.q{stroke:#f7f7fa;}.m{stroke-width:2px;}.n{fill:#6b7690;}.o{fill:#8c93a3;}.p{fill:#bcc0ca;}.r{fill:#d3daea;}.s{fill:#f7f7fa;}.t{fill:#2f3d48;}.u{stroke:#2f3d48;stroke-width:0.397px;}.v{stroke:#bcc0ca;stroke-linecap:round;stroke-width:1.545px;}.w{fill:#e5eaf6;}</style></defs><g transform="translate(31.782 -0.655)"><path class="a" d="M495.034,112.731C469.582,61.828,411.452-8.416,255.764,2.113S23.534,104.133,2.7,219.31C-10.817,294.073,50.426,360.089,149.846,376s234.6-28.742,314.964-106.578C499.789,235.541,520.485,163.634,495.034,112.731Z" transform="translate(39.582 0)"/><path class="b" d="M57.014,34.518h81.335s.357-12.871-8.4-12.871a16.309,16.309,0,0,0-8.58,2.681s-2.5-8.759-11.8-10.189-11.8,2.324-11.8,2.324S91.157.2,78.287,1.09C59.338,2.341,59.159,22.362,59.159,22.362s-9.653,1.43-8.044,12.334h5.9Z" transform="translate(100.357 0)"/><path class="b" d="M113.7,16.182c4.573-2.108,7.206-6.143,5.885-9.012s-6.1-3.486-10.675-1.377-7.206,6.143-5.883,9.012S109.135,18.29,113.7,16.182Z" transform="translate(163.152 4.23)"/><g transform="translate(-31.782 28.075)"><path class="c" d="M141.065,43.155C86.232,44.827,53.913,74.506,44.608,89.137l-76.39,182.61L57.3,394.406l194.193,63.749,260.193-101.37,76.152-227.936c-27.5-2.09-86.307-14.84-101.538-49.117-19.039-42.847-88.845-74.2-140.884-64.793s-55.848,53.3-93.924,53.3S209.606,41.065,141.065,43.155Z" transform="translate(31.782 -13.263)"/></g><path class="d" d="M178.156,143.881c2.857,1.682,5.883,6.556,7.226,12.607,2.016,8.065.673,15.462-3.026,16.469-3.7.841-8.233-4.874-10.252-13.109a23.49,23.49,0,0,1-.839-5.546,107.252,107.252,0,0,1,12.6-1.344C181.686,149.427,179.668,146.738,178.156,143.881Z" transform="translate(246.353 173.288)"/><path class="e" d="M140.342,30.578c.5,2.353,1.009,14.622-3.864,11.26-3.7-2.521-5.546-8.235-5.378-12.605a4.762,4.762,0,0,1,1.848-4.2,4.351,4.351,0,0,1,5.042.672A9.449,9.449,0,0,1,140.342,30.578Z" transform="translate(197.607 28.435)"/><path class="d" d="M175.231,143.687a4.046,4.046,0,0,1,3.026.671c1.512,2.689,3.53,5.546,5.546,8.74-4.2.336-8.4.841-12.6,1.343C171.031,148.729,172.374,144.358,175.231,143.687Z" transform="translate(246.254 172.979)"/><path class="d" d="M75.279,164.051h0c3.866-1.848,7.731-3.53,11.429-5.21a24.028,24.028,0,0,1,2.017,5.21,10.776,10.776,0,0,0,.336,1.177A126.92,126.92,0,0,0,75.279,164.051Z" transform="translate(129.894 191.438)"/><path class="d" d="M75.461,167.648c-1.008-6.051.336-10.925,3.193-11.764,2.689-.841,5.882,2.016,8.235,6.722C83.025,164.118,79.327,165.8,75.461,167.648Z" transform="translate(129.712 187.674)"/><path class="d" d="M290.744,76.372c-7.563,39.5-9.915,78.825-11.093,118.659-.168,6.385-.336,12.6-.5,18.99-3.192,0-6.554.168-9.747.336-47.227,2.521-94.119,21.011-129.414,52.607-.336-.168-.841-.5-1.177-.673l.168-.336A309,309,0,0,0,93.429,156.543c.168,0,.336.168.672.168q39.075-17.649,77.816-33.783C210.911,106.625,250.071,91.163,290.744,76.372Z" transform="translate(151.915 91.382)"/><path class="f" d="M247.81,91.022c-40.673,14.79-79.835,30.253-118.826,46.724l-.168-.336A563.4,563.4,0,0,0,137.554,64.3c4.876,1.008,9.749,2.017,14.455,3.193,27.228,6.219,53.11,13.782,80.337,20.168C237.388,88.837,242.6,89.845,247.81,91.022Z" transform="translate(194.849 76.733)"/><path class="d" d="M111.739,178.554c4.2-2.521,8.572-5.042,12.773-7.563a47.577,47.577,0,0,1,2.016,5.21c2.689,9.413,1.514,17.985-2.855,19.329-4.371,1.177-10.086-5.378-12.775-14.789a27.2,27.2,0,0,1-.839-3.53A15.119,15.119,0,0,1,111.739,178.554Z" transform="translate(172.092 206.18)"/><path class="e" d="M251.3,80.424c2.689,3.193,1.68,8.235-.673,11.765-3.362,4.874-8.74,7.9-14.287,9.58s-11.6,2.017-17.31,2.185c.5,0,2.353-8.235,2.857-9.076a28.113,28.113,0,0,1,4.2-6.723,29.172,29.172,0,0,1,13.277-9.58C243.231,77.063,248.609,77.063,251.3,80.424Z" transform="translate(304.302 92.877)"/><path class="d" d="M124.922,176.237c-4.371,2.521-8.572,5.042-12.775,7.563a14.322,14.322,0,0,0-1.68-1.175c-1.512-7.9-.168-14.623,3.7-15.8C117.526,165.817,121.9,169.684,124.922,176.237Z" transform="translate(171.852 200.934)"/><path class="g" d="M148.248,222.43a277.5,277.5,0,0,0-35.631-9.413c-1.513-5.21-3.025-10.588-4.874-15.63a284.061,284.061,0,0,0-59.5-100.338l1.008-1.009c32.942,12.269,66.052,24.539,98.994,36.807A309.007,309.007,0,0,1,193.8,242.263l-.168.334A247.771,247.771,0,0,0,148.248,222.43Z" transform="translate(97.095 115.245)"/><path class="h" d="M284.821,91.18v94.183m-25.167-78.757v84.443M68.038,135.837c8.931,12.99,27.768,45.793,31.666,73.073m0-63.331c7.577,14.886,22.732,48.391,22.732,63.331" transform="translate(121.109 109.347)"/><path class="i" d="M147.7,171.284c-32.942-12.27-66.052-24.539-98.994-36.808,25.043-9.412,49.917-18.824,74.96-28.236,15.463-5.883,31.093-11.765,46.556-17.648,21.513-8.067,42.858-16.135,64.539-24.37a560.313,560.313,0,0,1-8.74,73.111l.168.336c-25.882,10.924-51.6,22.017-77.817,33.783C148.032,171.452,147.864,171.452,147.7,171.284Z" transform="translate(97.649 76.64)"/><path class="d" d="M89.153,162.37c1.849,7.06.672,13.446-2.689,14.455-3.529,1.009-8.067-4.369-10.42-11.934a37.823,37.823,0,0,1-.84-3.7A126.99,126.99,0,0,1,89.153,162.37Z" transform="translate(129.803 194.294)"/><path class="e" d="M264.908,139.092C237.68,132.7,211.8,125.31,184.57,118.923c-4.708-1.177-9.581-2.185-14.455-3.193-21.513,8.067-43.026,16.135-64.539,24.37a45.3,45.3,0,0,1-3.53-14.958c-.5-9.244,1.848-18.488,5.378-27.059a111.321,111.321,0,0,1,10.757-20.841c4.705-7.395,10.42-14.286,17.649-18.992,7.395-4.706,16.805-6.723,25.041-4.034S175.83,65.14,175.157,73.88a57.682,57.682,0,0,1,13.277-27.732,76.319,76.319,0,0,1,25.38-18.992c6.385-3.025,13.277-5.21,20.336-5.378s14.287,2.185,19.329,7.059a26.62,26.62,0,0,1,7.058,13.614,43.419,43.419,0,0,1,0,15.463,39.831,39.831,0,0,1,21.179-11.429c5.544-1.008,12.1-.5,15.967,3.866,3.7,4.2,3.528,10.42,2.016,15.631,7.226-8.235,17.31-14.958,27.9-17.479,10.42-2.521,21.681-1.849,31.26,2.857s17.312,13.278,20,23.7c3.023,11.765-.673,24.2-6.724,34.623a80.071,80.071,0,0,1-35.8,32.606c3.362-1.176,6.219-2.521,9.581-2.689a14.51,14.51,0,0,1,9.747,3.194,13.2,13.2,0,0,1,4.035,10.42,25.161,25.161,0,0,1-3.362,10.925,45.6,45.6,0,0,1-17.817,18.32c5.044-2.689,10.254-5.378,15.8-6.387,6.049-1.176,12.773-.336,17.815,3.193,4.537,3.194,7.226,8.572,8.4,13.95,2.521,11.934-2.184,24.707-10.588,33.781-6.556,7.06-15.294,11.934-24.539,14.96a12.6,12.6,0,0,0-7.395,2.016,53.158,53.158,0,0,0,7.395-2.016h.336a6.347,6.347,0,0,1,4.537,1.68,4.94,4.94,0,0,1,1.009,4.035,9.574,9.574,0,0,1-1.85,3.7,14.029,14.029,0,0,1-10.588,4.876c-23.025-.5-46.722-1.009-69.076,4.705h-.673c1.177-40,3.53-79.162,11.093-118.658C275.16,141.445,269.95,140.436,264.908,139.092Z" transform="translate(162.288 25.134)"/><path class="j" d="M94.911,155.819,288.883,76.441" transform="translate(153.713 91.465)"/><path class="k" d="M151.665,131.831,48.527,96.45" transform="translate(97.437 115.741)"/><path class="l" d="M291.694,138.718a22.984,22.984,0,0,0,3.194,11.429c1.512,2.689,3.53,5.546,5.547,8.74-4.2.334-8.4.839-12.607,1.343-22.015,3.194-43.194,10.757-63.7,19.665-19.665,8.74-38.489,19.16-57.145,30.085-4.369,2.521-8.572,5.042-12.773,7.563a14.71,14.71,0,0,0-1.68-1.177,140.847,140.847,0,0,0-63.364-26.723A127.348,127.348,0,0,0,75.386,188.3H75.05c.168,0,.168-.168.336-.168,3.866-1.85,7.731-3.362,11.429-5.042,9.58-4.2,18.992-8.067,28.74-12.439" transform="translate(129.617 167.024)"/><path class="m" d="M139.3,85.918c4.874-9.748,6.892-20.336,12.6-29.58,13.95-1.849,18.824-3.865,32.438-7.227" transform="translate(207.566 58.306)"/><path class="m" d="M175.592,96.613c4.874-9.748,12.268-20,17.983-29.412,13.95-1.849,19.514-4.072,33.706-10.419" transform="translate(251.601 67.613)"/><path class="n" d="M48.7,82.039a6.228,6.228,0,0,1,3.025-1.345,5.1,5.1,0,0,1,4.37,1.009c1.849,1.681,2.017,4.706,1.177,7.059a8.619,8.619,0,0,1-4.874,5.378c-2.353.84-5.378.168-6.555-2.017a6.15,6.15,0,0,1-.672-3.865A8.2,8.2,0,0,1,48.7,82.039Z" transform="translate(93.287 96.472)"/><path class="o" d="M68,104.948a8,8,0,0,0-3.025,1.345,8.2,8.2,0,0,0-3.53,6.218,6.15,6.15,0,0,0,.672,3.866c1.177,2.185,4.2,2.857,6.555,2.017a8.619,8.619,0,0,0,4.874-5.378c.84-2.353.84-5.378-1.177-7.059A5.1,5.1,0,0,0,68,104.948ZM115.223,75.2l31.261-14.622.672.168a134.972,134.972,0,0,0-2.857,49.917c-25.043,9.58-49.917,18.992-74.96,28.4l-1.009,1.008a284.528,284.528,0,0,1,59.5,100.338,280.381,280.381,0,0,0-65.38,36.473c-.168,0-.168-.168-.336-.168A362.576,362.576,0,0,0,31.692,114.7C42.448,109.654,53.373,104.612,64.13,99.4,81.1,91.335,98.08,83.267,115.223,75.2Zm2.857,14.454a8.485,8.485,0,0,0-5.882,7.4,6.15,6.15,0,0,0,.672,3.865c1.177,2.185,4.2,2.857,6.555,2.017a8.619,8.619,0,0,0,4.874-5.378c.84-2.353.84-5.378-1.177-7.059a5.1,5.1,0,0,0-4.37-1.008C118.416,89.486,118.248,89.654,118.08,89.654Z" transform="translate(77.011 72.218)"/><path class="n" d="M74.656,73.708a5.1,5.1,0,0,1,4.37,1.008c1.849,1.681,2.017,4.706,1.177,7.059a8.619,8.619,0,0,1-4.874,5.378c-2.353.84-5.378.168-6.555-2.017a6.15,6.15,0,0,1-.672-3.865,8.736,8.736,0,0,1,5.882-7.395C74.152,73.876,74.32,73.708,74.656,73.708Z" transform="translate(121.112 87.996)"/><path class="p" d="M7.976,81.048a13.312,13.312,0,0,1-1.345-4.37C25.624,76.51,46.465,83.569,60.919,95.5l1.008-.5A360.286,360.286,0,0,1,92.348,257.019c-18.32-9.918-36.3-20.338-55.8-27.9a329.155,329.155,0,0,0-7.227-83.195,330.387,330.387,0,0,0-15.8-51.934C11.674,89.619,9.825,85.25,7.976,81.048Z" transform="translate(46.607 91.749)"/><path class="n" d="M106.036,69.606,74.776,84.228a199.648,199.648,0,0,0-7.059-24.2c-.84-2.353-1.681-4.538-2.689-6.891C79.314,58.514,92.087,63.22,106.036,69.606Z" transform="translate(117.457 63.189)"/><path class="n" d="M99.307,84.308c-17.143,8.067-34.118,15.967-51.261,24.034-2.017-14.118-3.53-28.235-3.193-42.521,4.538-1.513,8.908-3.025,13.445-4.37,1.849-.672,3.865-1.176,5.714-1.681,4.538-1.344,9.076-2.521,13.445-3.7,2.353-.672,9.412-3.7,11.6-2.857a.52.52,0,0,1,.336.168c1.008,2.185,1.849,4.538,2.689,6.891A165.323,165.323,0,0,1,99.307,84.308Z" transform="translate(92.922 63.109)"/><path class="n" d="M61.926,116.553l-1.008.5C46.3,105.125,25.624,98.066,6.632,98.234c0-1.513,1.513-2.185,4.706-4.033,7.9-4.37,15.8-8.572,24.034-12.437,4.874-2.353,9.916-4.706,14.958-6.891,11.26-5.042,22.857-9.58,34.622-13.782,2.185-.84,4.2-1.513,6.387-2.185a241.543,241.543,0,0,0,3.193,42.521C83.607,106.469,72.682,111.511,61.926,116.553Z" transform="translate(46.607 70.19)"/><path class="q" d="M51.719,80.694a5.1,5.1,0,0,1,4.37,1.009c1.849,1.681,2.017,4.706,1.177,7.059a8.618,8.618,0,0,1-4.874,5.378c-2.353.84-5.378.168-6.555-2.017a6.15,6.15,0,0,1-.672-3.865,9.064,9.064,0,0,1,3.529-6.219A7.008,7.008,0,0,1,51.719,80.694Z" transform="translate(93.284 96.472)"/><path class="q" d="M74.656,73.708a5.1,5.1,0,0,1,4.37,1.008c1.849,1.681,2.017,4.706,1.177,7.059a8.619,8.619,0,0,1-4.874,5.378c-2.353.84-5.378.168-6.555-2.017a6.15,6.15,0,0,1-.672-3.866,8.736,8.736,0,0,1,5.882-7.395C74.152,73.876,74.32,73.708,74.656,73.708Z" transform="translate(121.112 87.996)"/><path class="q" d="M102.075,110.47v-.336c-.84-4.874-1.681-9.58-2.857-14.454a199.651,199.651,0,0,0-7.059-24.2c-.84-2.353-1.681-4.538-2.689-6.891a58.176,58.176,0,0,0-4.538-8.4A29.354,29.354,0,0,0,72.328,45.26c-5.21-2.185-11.428-2.185-16.3.672-.336.168-.672.5-1.008.672a20.232,20.232,0,0,0-7.059,9.58,49.036,49.036,0,0,0-2.521,12.941q-.252,4.034-.5,8.067a241.547,241.547,0,0,0,3.193,42.521c.336,2.353.672,4.706,1.008,6.891v.168" transform="translate(93.014 51.737)"/><path class="q" d="M26.532,99.148a113.983,113.983,0,0,1,3.025-35.462c1.344-5.546,3.361-11.26,7.059-15.8a24.611,24.611,0,0,1,20.84-8.908,24.305,24.305,0,0,1,19.16,11.933c.336.5.5,1.009.84,1.513,3.865,7.731,3.529,16.975,3.193,25.546" transform="translate(70.403 45.916)"/><path class="r" d="M111.175,104.341s-10.42,6.555-9.915,13.445,0,8.067,0,8.067L158.1,101.817s-1.549-5.543-11.969-5.879C135.714,95.433,111.175,104.341,111.175,104.341Z" transform="translate(161.394 115.094)"/><path class="s" d="M152.3,84.372a42.915,42.915,0,0,0-39.159-.336c-5.883-5.21-10.589-9.58-17.647-12.941-.5,4.538-1.009,9.076,0,13.445s3.361,8.74,7.563,10.757c-6.555,4.2-7.731,14.454-5.042,21.849,2.689,7.227,9.075,12.605,15.967,16.3,7.395,3.866,15.63,6.219,23.863,5.378s16.3-5.21,20.674-12.269,4.2-16.975-1.009-23.193c6.722-5.546,9.579-14.79,10.42-23.53C162.216,79.33,155.326,79.834,152.3,84.372Z" transform="translate(153.714 84.979)"/><path class="t" d="M103.492,85.907c-1.68.168-2.855,2.857-2.689,6.219s1.682,5.882,3.362,5.882c1.682-.168,2.857-2.857,2.689-6.218S105.174,85.739,103.492,85.907Z" transform="translate(160.842 102.941)"/><path class="t" d="M104.794,88.718c-.336.84.336,1.681,1.009,2.353.5.5,1.343.84,1.68,1.345a11.519,11.519,0,0,0,4.705-1.849,4.457,4.457,0,0,0,.841-1.008c.168-.5.168-1.177-.336-1.008-1.346-1.177-3.362-1.177-5.21-1.008a2.5,2.5,0,0,0-1.514.336A1.264,1.264,0,0,0,104.794,88.718Z" transform="translate(165.596 104.836)"/><path class="t" d="M113.9,85.375c-1.68.168-2.857,2.857-2.689,6.218s1.68,5.882,3.362,5.882c1.68-.168,2.857-2.857,2.689-6.218S115.576,85.207,113.9,85.375Z" transform="translate(173.465 102.295)"/><path class="u" d="M105.957,89.4a22.771,22.771,0,0,0,1.007,5.714,7.094,7.094,0,0,0,3.7,4.2,4.4,4.4,0,0,0,5.21-1.345" transform="translate(167.115 107.182)"/><path class="u" d="M110.75,89.4a32.585,32.585,0,0,1-.336,5.714,6.938,6.938,0,0,1-3.194,4.538,4.313,4.313,0,0,1-5.21-.84" transform="translate(162.326 107.182)"/><path class="t" d="M245.965,85.391C223.648,95.414,214.589,142,211.227,188.331c-3.4-40.516-12.981-75.132-36.557-64.891-38.334,16.9-21.409,108.2-10.179,153.267,6.036-2.541,12.073-5.079,18.406-8.041,63.508-29.649,87.648-87.4,94.551-144.162C272.991,96.952,264.129,77.023,245.965,85.391Z" transform="translate(221.656 99.984)"/><path class="t" d="M132.323,137.738c-27.172,14.021,16.515,78.4,23.952,89.135a376.545,376.545,0,0,0,36.247-11.907C190.185,207.968,160.657,122.958,132.323,137.738Z" transform="translate(188.418 163.745)"/><path class="o" d="M247.208,84.8c-22.316,10.022-31.375,56.609-34.737,102.939-3.4-40.516-12.981-75.132-36.557-64.891-38.334,16.9-21.411,108.2-10.179,153.267,6.036-2.541,12.073-5.079,18.406-8.041,63.508-29.649,87.648-87.4,94.551-144.161C274.265,96.54,265.4,76.611,247.208,84.8Z" transform="translate(223.164 99.352)"/><path class="o" d="M133.563,137.186c-27.172,14.021,16.518,78.4,23.954,89.135a376.95,376.95,0,0,0,36.247-11.907C191.427,207.418,161.9,122.406,133.563,137.186Z" transform="translate(189.923 163.076)"/><path class="v" d="M133.095,146.773l34.315,58.433" transform="translate(200.041 176.797)"/><path class="v" d="M163.749,112.118l15.218,113.258" transform="translate(237.233 134.751)"/><path class="v" d="M210.37,92.465,188.793,216.616" transform="translate(267.618 110.907)"/><path class="w" d="M240.749,183.562c15.761-14.9,22.049-33.839,14.043-42.309s-27.272-3.258-43.033,11.637-22.049,33.841-14.043,42.311S224.988,198.459,240.749,183.562Z" transform="translate(274.225 165.173)"/><path class="w" d="M44.377,48.161c9.771-9.236,13.669-20.98,8.705-26.231S36.174,19.909,26.4,29.145,12.735,50.125,17.7,55.376,34.606,57.4,44.377,48.161Z" transform="translate(57.417 22.274)"/></g></svg>