<svg xmlns="http://www.w3.org/2000/svg" width="22.439" height="22.3" viewBox="0 0 22.439 22.3"><defs><style>.a{fill:#00b2ae;stroke:#01b2ae;stroke-width:0.3px;}</style></defs><path class="a" d="M16.012,16.844v1.719A3.441,3.441,0,0,1,12.574,22H3.938A3.441,3.441,0,0,1,.5,18.563V3.438A3.441,3.441,0,0,1,3.938,0h8.637a3.441,3.441,0,0,1,3.438,3.438V5.156a.859.859,0,0,1-1.719,0V3.438a1.721,1.721,0,0,0-1.719-1.719H3.938A1.721,1.721,0,0,0,2.219,3.438V18.563a1.721,1.721,0,0,0,1.719,1.719h8.637a1.721,1.721,0,0,0,1.719-1.719V16.844a.859.859,0,1,1,1.719,0Zm5.859-7.32L19.946,7.6a.859.859,0,0,0-1.215,1.215L20.1,10.184H9.781a.859.859,0,0,0,0,1.719H20.1l-1.369,1.369a.859.859,0,1,0,1.215,1.215l1.924-1.924A2.151,2.151,0,0,0,21.871,9.524Zm0,0" transform="translate(-0.35 0.15)"/></svg>