<svg xmlns="http://www.w3.org/2000/svg" xmlns:xlink="http://www.w3.org/1999/xlink" width="33.167" height="49.903" viewBox="0 0 33.167 49.903"><defs><style>.a{fill:none;}.b{clip-path:url(#a);}.c{clip-path:url(#b);}</style><clipPath id="a"><path class="a" d="M389.4-97.662a4.075,4.075,0,0,0,.625-.048,3.921,3.921,0,0,0,2.568-1.543l3.748-5.057a.719.719,0,0,0,.087-.707.743.743,0,0,0-.568-.444,24.5,24.5,0,0,0-3.331-.267,23.473,23.473,0,0,0-1.289-3.022.746.746,0,0,0-.606-.392.751.751,0,0,0-.659.3l-3.748,5.057a3.772,3.772,0,0,0-.7,2.87,3.8,3.8,0,0,0,.973,1.989c-.567.661-1.566,1.863-2.661,3.359v-.639a.739.739,0,0,0-.746-.731.739.739,0,0,0-.746.731v2.793c-.6.918-1.182,1.889-1.7,2.875v-4.105h0V-95.9l2.173-2.13a.721.721,0,0,0,0-1.034.757.757,0,0,0-1.055,0l-1.119,1.1v-2.262a3.883,3.883,0,0,0,3.189-3.786v-6.25a.728.728,0,0,0-.354-.622.759.759,0,0,0-.726-.032,24.314,24.314,0,0,0-2.855,1.7,24.29,24.29,0,0,0-2.855-1.7.759.759,0,0,0-.726.032.728.728,0,0,0-.354.622v6.25a3.883,3.883,0,0,0,3.189,3.786v3.825l-1.916-1.877a.757.757,0,0,0-1.055,0,.721.721,0,0,0,0,1.034l2.97,2.911v3.8a48.884,48.884,0,0,0-5.85-8.388,3.8,3.8,0,0,0,.973-1.989,3.772,3.772,0,0,0-.7-2.87l-3.748-5.057a.751.751,0,0,0-.659-.3.746.746,0,0,0-.606.392,23.4,23.4,0,0,0-1.29,3.022,24.565,24.565,0,0,0-3.331.267.743.743,0,0,0-.568.444.719.719,0,0,0,.087.707l3.748,5.057a3.922,3.922,0,0,0,2.568,1.543,4.063,4.063,0,0,0,.625.048,3.955,3.955,0,0,0,1.707-.386c.23.269.549.646.926,1.111h-.655a.739.739,0,0,0-.746.731.739.739,0,0,0,.746.731h1.8a43.281,43.281,0,0,1,3.38,5.108,24.468,24.468,0,0,0-4.034-3.135,24.8,24.8,0,0,0-8.661-3.427.757.757,0,0,0-.6.169.725.725,0,0,0-.259.554,21.6,21.6,0,0,0,1.439,6.79,29.747,29.747,0,0,0,9.722,13.093v2.679L372-62.017a.719.719,0,0,0,.129.634.751.751,0,0,0,.591.286h14.35a.751.751,0,0,0,.591-.286.719.719,0,0,0,.129-.634l-3.164-11.627v-2.679a29.747,29.747,0,0,0,9.722-13.093,21.6,21.6,0,0,0,1.439-6.79.725.725,0,0,0-.259-.554.756.756,0,0,0-.6-.169,22.987,22.987,0,0,0-5.558,1.771,25.457,25.457,0,0,0-7.143,4.8,43.327,43.327,0,0,1,3.387-5.12h1.8a.739.739,0,0,0,.746-.731.739.739,0,0,0-.746-.731h-.654c.377-.465.695-.843.925-1.111A3.958,3.958,0,0,0,389.4-97.662Zm4.989-6.5-1.126,1.52a11.715,11.715,0,0,0-.294-1.61C393.49-104.237,393.977-104.2,394.385-104.165Zm-27.854,1.52-1.127-1.52c.408-.038.894-.072,1.42-.09A11.714,11.714,0,0,0,366.531-102.645Zm5.29,3.064a2.465,2.465,0,0,1-1.818.427,2.435,2.435,0,0,1-1.594-.958c-1.07-1.443.065-4.854.948-6.869l3.005,4.055A2.366,2.366,0,0,1,371.821-99.582Zm10.517-9.446v1.875a12.108,12.108,0,0,0-1.2-1.13C381.57-108.571,381.985-108.824,382.338-109.028Zm-4.886,5.009v-5.011c1.923,1.121,4.886,3.228,4.886,5.011a2.422,2.422,0,0,1-2.443,2.394A2.422,2.422,0,0,1,377.452-104.019ZM366.867-89.847a22.821,22.821,0,0,1-1.312-5.446,24.745,24.745,0,0,1,7.162,3.025,22.4,22.4,0,0,1,6.224,5.72,23.791,23.791,0,0,1,4.031,9.144h-1.737a21.394,21.394,0,0,0-5.587-10.382.757.757,0,0,0-1.055-.017.721.721,0,0,0-.017,1.034A19.88,19.88,0,0,1,379.7-77.4h-3.53A28.323,28.323,0,0,1,366.867-89.847Zm16.268,13.9v1.663h-6.48v-1.663ZM386.1-62.559H382.94l-.126-.928a.743.743,0,0,0-.838-.628.734.734,0,0,0-.641.821l.1.735H373.69l2.791-10.258h3.557l.87,6.4a.741.741,0,0,0,.738.634.763.763,0,0,0,.1-.007.734.734,0,0,0,.641-.821l-.844-6.2h1.764Zm3.851-31.248a24.112,24.112,0,0,1,4.284-1.485,22.818,22.818,0,0,1-1.311,5.446A28.136,28.136,0,0,1,384.364-78a25.45,25.45,0,0,0-3.568-8.473A23.237,23.237,0,0,1,389.95-93.808Zm-2.522-9.118,3.005-4.055c.884,2.014,2.02,5.423.948,6.869a2.435,2.435,0,0,1-1.594.958,2.465,2.465,0,0,1-1.818-.427A2.366,2.366,0,0,1,387.428-102.926Z"/></clipPath><clipPath id="b"><path class="a" d="M2,3113H1442V-816H2Z"/></clipPath></defs><g class="b" transform="translate(-363.311 111)"><g class="c"><path d="M358.311-116h43.167v59.9H358.311Z"/></g></g></svg>