<svg xmlns="http://www.w3.org/2000/svg" width="85.848" height="71.388" viewBox="0 0 85.848 71.388"><defs><style>.a{fill:#00b2ae;}</style></defs><g transform="translate(0.001 -43.12)"><g transform="translate(-0.001 43.12)"><path d="M85.412,70.89a5.421,5.421,0,0,0-2.976-2.93l-1.509-.611V59.375a5.463,5.463,0,0,0-5.457-5.457h-27.7L31.891,47.484a1.26,1.26,0,1,0-.946,2.335l10.119,4.1H14.724l2.61-6.443a2.941,2.941,0,0,1,3.825-1.62l5.115,2.072a1.26,1.26,0,1,0,.946-2.335L22.105,43.52A5.464,5.464,0,0,0,15,46.528L12,53.918H10.377A5.463,5.463,0,0,0,4.92,59.375V71.409L.4,82.562a5.457,5.457,0,0,0,3.009,7.107l1.509.611v7.973a5.463,5.463,0,0,0,5.457,5.457h5.377a1.26,1.26,0,1,0,0-2.52H10.377A2.941,2.941,0,0,1,7.44,98.253V75.735H24a24.1,24.1,0,0,0-8.426,12,1.26,1.26,0,0,0,2.423.692c1.7-5.949,6.294-9.869,8.884-11.677v24.44H20.793a1.26,1.26,0,1,0,0,2.52H38.072l12.519,5.072a1.26,1.26,0,0,0,.946-2.336l-6.754-2.736H71.123l-2.61,6.443a2.941,2.941,0,0,1-3.825,1.62l-8.468-3.43a1.26,1.26,0,0,0-.946,2.335l8.468,3.43a5.457,5.457,0,0,0,7.107-3.009l2.993-7.39H75.47a5.463,5.463,0,0,0,5.457-5.457V86.219l4.518-11.153a5.423,5.423,0,0,0-.033-4.177ZM4.357,87.333a2.937,2.937,0,0,1-1.62-3.825L4.92,78.12v9.441Zm11.311-18.8c-.216-.508-.371-1.32.767-2.5a2.23,2.23,0,0,1,1.954-.775c1.523.23,3.535,1.99,5.664,4.958.74,1.031,1.384,2.055,1.881,2.893C21.1,72.634,16.589,70.7,15.668,68.53Zm11.21,1.316c-2-3-5-6.613-8.112-7.083a4.642,4.642,0,0,0-4.145,1.518,4.76,4.76,0,0,0-1.272,5.235,8.216,8.216,0,0,0,3.871,3.7H7.44V59.375a2.941,2.941,0,0,1,2.937-2.937h16.5V69.846ZM78.407,98.253a2.941,2.941,0,0,1-2.937,2.937H29.4V76.75c2.59,1.809,7.184,5.728,8.884,11.677a1.26,1.26,0,0,0,2.423-.692,24.1,24.1,0,0,0-8.426-12H78.407ZM30.342,73.106c.492-.83,1.129-1.843,1.863-2.868,2.135-2.983,4.153-4.752,5.681-4.983a2.23,2.23,0,0,1,1.955.775c1.138,1.181.983,1.992.767,2.5-.921,2.167-5.437,4.1-10.266,4.576Zm48.065.109H39.056a8.218,8.218,0,0,0,3.871-3.7,4.76,4.76,0,0,0-1.272-5.235,4.643,4.643,0,0,0-4.146-1.518c-3.11.47-6.112,4.079-8.112,7.083V56.438H75.47a2.941,2.941,0,0,1,2.937,2.937V73.215Zm4.7.906-2.182,5.387V70.067l.563.228a2.938,2.938,0,0,1,1.619,3.825Z" transform="translate(0.001 -43.12)"/><path class="a" d="M367.577,272V273.2a1.26,1.26,0,1,0,2.52,0V272.03A4.157,4.157,0,0,0,372.114,271a4.349,4.349,0,0,0,1.313-3.124,3.919,3.919,0,0,0-.872-2.535,5.169,5.169,0,0,0-3.571-1.661c-1.5-.165-1.719-.936-1.719-1.381a1.48,1.48,0,0,1,1.572-1.572,1.658,1.658,0,0,1,1.483.746,1.262,1.262,0,0,0,1.167.783,1.277,1.277,0,0,0,1.134-1.819,4.044,4.044,0,0,0-2.524-2.055v-1.232a1.26,1.26,0,1,0-2.52,0v1.229a3.716,3.716,0,0,0-2.076,1.488,4.5,4.5,0,0,0-.756,2.433c0,1.591,1.038,3.563,3.963,3.885,2.2.243,2.2,1.3,2.2,1.692a1.824,1.824,0,0,1-.52,1.289,2.184,2.184,0,0,1-1.681.449,2.012,2.012,0,0,1-1.986-1.2h0a1.261,1.261,0,1,0-2.406.745A4.35,4.35,0,0,0,367.577,272Z" transform="translate(-303.164 -220.217)"/></g></g></svg>