<svg xmlns="http://www.w3.org/2000/svg" width="200.658" height="57.469" viewBox="0 0 200.658 57.469"><defs><style>.a{fill:#55697d;font-size:12px;font-family:OpenSans, Open Sans;letter-spacing:0.07em;}.b,.e{fill:#00b2ae;}.c{opacity:0.15;}.d{fill:#fff;}.e{font-size:19px;font-family:Poppins-SemiBold, Poppins;letter-spacing:0.15em;font-weight:600;}.f{fill:#c90d41;font-family:Poppins-Bold, Poppins;font-weight:700;}.g{fill:#484265;font-family:Poppins-Regular, Poppins;font-weight:400;}</style></defs><g transform="translate(-57.002 -207.531)"><text class="a" transform="translate(121.002 261)"><tspan x="0" y="0">By Merit Incentives</tspan></text><g transform="translate(57.002 207.531)"><rect class="b" width="56.968" height="56.968" rx="8" transform="translate(0 0)"/><g transform="translate(8.554 11.84)"><g class="c" transform="translate(2.489 0)"><g transform="translate(0 0)"><path class="d" d="M3.252,14.079c-.912,1.79-1.417,3.292.657,4.647,0-.934.032-1.629,0-2.32C3.5,8.947,9.731,1.106,18.342.136A16.65,16.65,0,0,1,33.533,5.892c1.3,1.466,1.246,1.667-.384,2.713-.72.463-1.455.911-2.238,1.4-.629-.7-1.178-1.353-1.779-1.96A11.96,11.96,0,0,0,15.506,5.553,12.259,12.259,0,0,0,8.517,17.817c.2,2.011.5,2.124,2.424,1.972,8.866-.7,17-3.66,24.764-7.816a6.009,6.009,0,0,1,.831-.284,13.411,13.411,0,0,1,.742,6.389,16.761,16.761,0,0,1-31.22,6.783,4.482,4.482,0,0,0-2.469-2.23C.981,21.649-.149,20.006.01,17.831a4.452,4.452,0,0,1,1.972-3.348A5.556,5.556,0,0,1,3.252,14.079Zm8.01,9.89C13.691,27.7,19.4,29.483,24.021,28.1c4.235-1.269,8.152-5.576,8.117-9.022A42.432,42.432,0,0,1,11.262,23.969Z" transform="translate(0.005 0.002)"/></g></g><g transform="translate(0 0)"><g transform="translate(0 0)"><path class="d" d="M3.3,14.079c-.912,1.79-1.417,3.292.657,4.647,0-.934.032-1.629,0-2.32-.4-7.46,5.827-15.3,14.437-16.27A16.65,16.65,0,0,1,33.584,5.892c1.3,1.466,1.246,1.667-.384,2.713-.72.463-1.455.911-2.238,1.4-.629-.7-1.178-1.353-1.779-1.96A11.96,11.96,0,0,0,15.556,5.553,12.259,12.259,0,0,0,8.568,17.817c.2,2.011.5,2.124,2.424,1.972,8.866-.7,17-3.66,24.764-7.816a6.009,6.009,0,0,1,.831-.284,13.411,13.411,0,0,1,.742,6.389,16.761,16.761,0,0,1-31.22,6.783A7.779,7.779,0,0,0,4.876,22.8a2.9,2.9,0,0,0-.894-.364C1.374,21.458-.1,20.006.061,17.831a4.452,4.452,0,0,1,1.972-3.348A5.556,5.556,0,0,1,3.3,14.079Zm8.01,9.89c2.428,3.732,8.136,5.513,12.759,4.128,4.235-1.269,8.152-5.576,8.117-9.022A42.432,42.432,0,0,1,11.313,23.969Z" transform="translate(-0.049 0.002)"/></g></g></g><g transform="translate(63.658 15.296)"><text class="e" transform="translate(68 20)"><tspan x="-68.219" y="0">Gifti</tspan><tspan class="f" y="0"> </tspan><tspan class="g" y="0">Global</tspan></text></g></g></g></svg>