<svg xmlns="http://www.w3.org/2000/svg" xmlns:xlink="http://www.w3.org/1999/xlink" width="50.921" height="44.71" viewBox="0 0 50.921 44.71"><defs><style>.a{fill:none;}.b{clip-path:url(#a);}.c{clip-path:url(#b);}</style><clipPath id="a"><path class="a" d="M747.387-72.626l-.194-1.027a1.407,1.407,0,0,0-1.391-1.133,1.452,1.452,0,0,0-.257.023l-3.954.712,1.791-1.173a1.372,1.372,0,0,0,.6-1.4,1.364,1.364,0,0,0-.159-.427l-.542-.94a1.417,1.417,0,0,0-.868-.658,1.449,1.449,0,0,0-.549-.034,18.132,18.132,0,0,0,.3-3.3,1.222,1.222,0,0,0-.742-1.116,5.5,5.5,0,0,0,.046-4.242.881.881,0,0,0-.2-.3.905.905,0,0,0-.3-.2,5.777,5.777,0,0,0-2.109-.4q-.139,0-.277.007a3.909,3.909,0,0,0-3.93-3.669,4,4,0,0,0-.808.083,5.911,5.911,0,0,0-.348-3.217.9.9,0,0,0-.206-.31.914.914,0,0,0-.31-.2,6.222,6.222,0,0,0-2.271-.428,6.181,6.181,0,0,0-3.27.926,7.211,7.211,0,0,0-1.756-2.754,1.271,1.271,0,0,0-.9-.364,1.272,1.272,0,0,0-.9.365l-3.612,3.547a3.793,3.793,0,0,0-2.5-.933,3.874,3.874,0,0,0-.65.055,3.812,3.812,0,0,0-2.043,1.053,3.858,3.858,0,0,0-2.285-.314,3.852,3.852,0,0,0-.5.12v-2.734a3.485,3.485,0,0,0-3.454-3.449v-1.55a1.227,1.227,0,0,0,1.031-1.2v-3.513a1.232,1.232,0,0,0-1.243-1.218h-6.066a1.232,1.232,0,0,0-1.243,1.218v3.513a1.227,1.227,0,0,0,1.031,1.2v1.55a3.485,3.485,0,0,0-3.453,3.449v21.335a6.924,6.924,0,0,0-2.416,5.191c0,4,3.583,7.255,7.987,7.255l29.855-.009a3.447,3.447,0,0,0,2.629-1.2,3.278,3.278,0,0,0,.749-2.665l5.963,1.05a1.455,1.455,0,0,0,.251.022,1.428,1.428,0,0,0,.823-.258,1.387,1.387,0,0,0,.576-.922l.161-1.062a1.346,1.346,0,0,0-.008-.456,1.4,1.4,0,0,0-1.075-1.1l-2.1-.473,3.95-.711a1.408,1.408,0,0,0,.91-.577A1.352,1.352,0,0,0,747.387-72.626ZM738.86-86.778a4.261,4.261,0,0,1,1.315.207,4.067,4.067,0,0,1-.357,3.362h-2.009l.641-.63a.721.721,0,0,0,0-1.034.757.757,0,0,0-1.055,0l-.339.333a3.375,3.375,0,0,0-.8-1.35A4.225,4.225,0,0,1,738.86-86.778Zm-4.206-3.662a2.425,2.425,0,0,1,2.443,2.4c0,.025,0,.049,0,.073a5.692,5.692,0,0,0-2.129,1.238c-.1-.037-.2-.07-.3-.1A3.406,3.406,0,0,0,732.6-89.34,2.451,2.451,0,0,1,734.653-90.441Zm-3.943-4.072a4.706,4.706,0,0,1,1.484.239,4.5,4.5,0,0,1-.185,3.376,3.887,3.887,0,0,0-.956,1.3,3.583,3.583,0,0,0-.4.044,3.516,3.516,0,0,0-1.586.709,3.873,3.873,0,0,0-.564-.768l1.711-1.68a.721.721,0,0,0,0-1.034.757.757,0,0,0-1.055,0l-1.87,1.836a3.958,3.958,0,0,0-1.144-.333,4.538,4.538,0,0,1,1.275-2.351A4.663,4.663,0,0,1,730.71-94.513Zm-5.716,11.3h-.647a.745.745,0,0,0-.694-.464.746.746,0,0,0-.694.464H722.2a.72.72,0,0,0-.108-.9.757.757,0,0,0-1.055,0l-.7.69a.728.728,0,0,0-.147.208h-1.518a5.7,5.7,0,0,1-.957-2.95h11.834a5.7,5.7,0,0,1-.957,2.95h-1.58a.731.731,0,0,0-.147-.208l-.7-.69a.757.757,0,0,0-1.055,0A.72.72,0,0,0,724.995-83.21Zm-1.735-4.412a2.44,2.44,0,0,1,2.358-1.775,2.441,2.441,0,0,1,2.358,1.775Zm1.525-8.988a5.744,5.744,0,0,1,1.409,2.581,6.02,6.02,0,0,0-.947,1.331.752.752,0,0,0-.389-.108h-.994a.739.739,0,0,0-.746.731.739.739,0,0,0,.746.731h.872a5.967,5.967,0,0,0-.115.612,3.949,3.949,0,0,0-.844.323,3.757,3.757,0,0,0-2.3-1.719v-.006a3.646,3.646,0,0,0-.3-.936Zm-13.484,6.6a2.183,2.183,0,0,1-.1-.366,2.236,2.236,0,0,1,1.853-2.574,2.348,2.348,0,0,1,.393-.034,2.284,2.284,0,0,1,1.358.444.758.758,0,0,0,.574.135.748.748,0,0,0,.494-.316,2.262,2.262,0,0,1,1.508-.967,2.347,2.347,0,0,1,.394-.034,2.25,2.25,0,0,1,2.233,1.843,2.191,2.191,0,0,1,.033.379.737.737,0,0,0,.681.727,2.268,2.268,0,0,1,1.873,1.311,3.82,3.82,0,0,0-.862,1.846h-4.254a1.268,1.268,0,0,0-1.172.773,5.732,5.732,0,0,0-3.195-.961,5.78,5.78,0,0,0-2.109.4.9.9,0,0,0-.3.2.874.874,0,0,0-.2.3,5.517,5.517,0,0,0-.348,1.3,2.194,2.194,0,0,1-.529-1.085,2.22,2.22,0,0,1,1.288-2.4A.726.726,0,0,0,711.3-90.014Zm2.224,6.6.2.2h-1.791a4.065,4.065,0,0,1-.137-2.931,4.26,4.26,0,0,1,1.315-.207,4.222,4.222,0,0,1,2.977,1.212,4.151,4.151,0,0,1,.3.326,7.134,7.134,0,0,0,.571,1.6h-1.124l-1.255-1.233a.757.757,0,0,0-1.055,0A.721.721,0,0,0,713.525-83.41Zm-3.176.2h-2.659a2.4,2.4,0,0,1,1.156-1.668,3.734,3.734,0,0,0,1.36,1.1A5.555,5.555,0,0,0,710.348-83.21Zm-7.528-23.266h5.569v3.025H702.82Zm4.538,4.487v1.53h-3.506v-1.53Zm-6.96,7.945h4.844a.738.738,0,0,0,.746-.731.738.738,0,0,0-.746-.731H700.4v-1.5A2.008,2.008,0,0,1,702.421-99h6.368a2.008,2.008,0,0,1,2.023,1.989v1.5h-1.393a.739.739,0,0,0-.746.731.739.739,0,0,0,.746.731h1.393v.649a3.639,3.639,0,0,0-1.079,3.264v.008a3.662,3.662,0,0,0-1.58,3.671c.015.084.033.166.054.248a3.946,3.946,0,0,0-.994.766H700.4Zm0,10.067h5.949a3.758,3.758,0,0,0-.162.768h-.126a1.235,1.235,0,0,0-1.245,1.221,18.141,18.141,0,0,0,.323,3.415c-.214-.017-.434-.026-.658-.026a6.922,6.922,0,0,0-2.42.4c-1.007.39-1.285.943-1.346,1.326-.107.052-.212.107-.315.163ZM709.843-75a2.8,2.8,0,0,1,.528.519h-.028a4.7,4.7,0,0,1-2.043-.635,5.383,5.383,0,0,1-.856-.569.758.758,0,0,0-.964,0,5.345,5.345,0,0,1-.855.569,4.7,4.7,0,0,1-2.043.635h-.028a2.793,2.793,0,0,1,.528-.519.722.722,0,0,0,.251-.772.742.742,0,0,0-.63-.525,3.616,3.616,0,0,1-1.4-.4,4.318,4.318,0,0,1,2.181-.446,4.729,4.729,0,0,1,2.118.406.76.76,0,0,0,.73,0,4.732,4.732,0,0,1,2.118-.406,4.318,4.318,0,0,1,2.181.446,3.614,3.614,0,0,1-1.4.4.742.742,0,0,0-.63.525A.721.721,0,0,0,709.843-75Zm-1.492,8.9.026.135a3.292,3.292,0,0,0,.537,1.275h-4.437c-3.581,0-6.5-2.6-6.5-5.793a5.738,5.738,0,0,1,3.366-5.075,3.228,3.228,0,0,0,.858.431,1.707,1.707,0,0,0-.251.723,1.175,1.175,0,0,0,.3.9,1.712,1.712,0,0,0,1.331.486,6.254,6.254,0,0,0,2.766-.818q.326-.177.615-.372.288.195.615.372a6.256,6.256,0,0,0,2.766.818h0a1.712,1.712,0,0,0,1.331-.486,1.175,1.175,0,0,0,.3-.9,1.708,1.708,0,0,0-.251-.723,3.233,3.233,0,0,0,.858-.431,5.944,5.944,0,0,1,3.2,3.761L710.5-69.832A3.333,3.333,0,0,0,708.351-66.1Zm27.465.723a1.946,1.946,0,0,1-1.485.679h-.783l-.489-2.588a.745.745,0,0,0-.869-.586.732.732,0,0,0-.6.852l.439,2.323h-2.567l-.331-1.75a.745.745,0,0,0-.869-.586.732.732,0,0,0-.6.852l.281,1.485-5.97,0-.449-2.377a.745.745,0,0,0-.869-.586.732.732,0,0,0-.6.852l.4,2.111-8.717,0h0a1.919,1.919,0,0,1-1.9-1.542l-.026-.135a1.875,1.875,0,0,1,1.21-2.1l2.932-1.091.218,1.155a.742.742,0,0,0,.732.6.771.771,0,0,0,.137-.012.732.732,0,0,0,.6-.852l-.268-1.416,4.352-1.62a.727.727,0,0,0,.432-.943.751.751,0,0,0-.962-.424l-2.025.754a7.45,7.45,0,0,0-3.963-4.561c-.061-.383-.339-.936-1.346-1.326a6.922,6.922,0,0,0-2.42-.4,7.716,7.716,0,0,0-1.737.189v-.442a.739.739,0,0,0-.746-.731.752.752,0,0,0-.461.157,16.747,16.747,0,0,1-.194-2.322h24.3a.739.739,0,0,0,.746-.731.739.739,0,0,0-.746-.731H730.3a7.117,7.117,0,0,0,.743-3.169,1.254,1.254,0,0,0-1.145-1.237,1.981,1.981,0,0,1,1.017-.5,2.051,2.051,0,0,1,.344-.029,1.96,1.96,0,0,1,1.946,1.605,1.914,1.914,0,0,1,.029.33.737.737,0,0,0,.681.727,1.962,1.962,0,0,1,1.774,1.6,1.871,1.871,0,0,1-.005.673h-.8a.739.739,0,0,0-.746.731.739.739,0,0,0,.746.731h5.8a16.53,16.53,0,0,1-.523,3.922l-4.042,2.339a3.348,3.348,0,0,0-1.614-1.993,3.487,3.487,0,0,0-2.9-.209l-8.326,3.1a.727.727,0,0,0-.432.943.751.751,0,0,0,.962.424l1.1-.408.341,1.8a.742.742,0,0,0,.733.6.772.772,0,0,0,.137-.012.732.732,0,0,0,.6-.852l-.39-2.063,5.811-2.163a1.971,1.971,0,0,1,1.637.118,1.881,1.881,0,0,1,.952,1.3l1.509,7.984A1.843,1.843,0,0,1,735.816-65.377Zm2.661-5.722a.736.736,0,0,0-.611.7.734.734,0,0,0,.579.728L744-68.42l-.139.912-6.438-1.134-1.006-5.325,5.608-3.244.467.811-4.73,3.1a.723.723,0,0,0-.277.883.749.749,0,0,0,.826.444l7.43-1.338.166.875Z"/></clipPath><clipPath id="b"><path class="a" d="M2,3113H1442V-816H2Z"/></clipPath></defs><g class="b" transform="translate(-696.49 107.938)"><g class="c"><path d="M691.49-112.938h60.921v54.71H691.49Z"/></g></g></svg>