<svg xmlns="http://www.w3.org/2000/svg" width="285.83" height="54.857" viewBox="0 0 285.83 54.857"><defs><style>.a{fill:none;}.b{fill:#fff;}</style></defs><g transform="translate(0 -0.048)"><line class="a" y2="47.679" transform="translate(224.717 2.895)"/><path class="b" d="M403.63,48.178V95.817a.408.408,0,0,0,.408.422.422.422,0,0,0,.422-.422V48.178a.422.422,0,0,0-.422-.408.408.408,0,0,0-.408.408Z" transform="translate(-179.322 -45.269)"/><path class="b" d="M315.864,53.318c-.068-4.914-5.444-3.566-5.444-5.05,0-.612.136-.749.667-.749,2.491,0,4.927.272,7.418.272,2.082,0,4.179-.272,6.275-.272,1.075,0,1.279.136,1.279.681,0,1.62-4.859,0-4.859,5.118V89.523c0,4.573,6,3.035,6,5.05,0,.476-.2.681-1.361.681-1.552,0-4.451-.272-7.35-.272-4.083,0-5.526.272-6.479.272-1.211,0-1.361-.34-1.361-1.021,0-1.946,5.267.272,5.267-6.4Z" transform="translate(-212.979 -45.36)"/><path class="b" d="M330.676,54.734c0-6.805-5.526-4.723-5.526-6.533,0-.476.544-.681.939-.681,2.082,0,4.083.272,6.07.272,4.451,0,8.833-.272,14.632-.272,11.923,0,23.656,9.038,23.656,21.505,0,15.5-7.35,26.215-26.024,26.215-3.43,0-6.873-.259-10.3-.259-.613,0-7.078.259-7.554.259a.591.591,0,0,1-.667-.667c0-1.552,4.777.136,4.777-6.275ZM336,85.495c0,1.075-.2,4.315.422,4.914,2.219,2.232,7.35,3.035,10.385,3.035,9.528,0,18.674-5.118,18.674-20.689,0-14.972-9.977-23.452-22.785-23.52-6.4,0-6.683,1.075-6.683,4.247Z" transform="translate(-207.66 -45.36)"/><path class="b" d="M386.064,47.08c12.672,0,16.183,5.186,18.13,5.186.544,0,.953-.667,1.62-.667s.749,1.075.939,5.444c.136,3.58.749,5.8-.408,5.8-.817,0-1.279-1.742-1.552-2.219-4.165-7.214-8.97-11.6-17.694-11.6-13.148,0-19.491,8.765-19.491,21.3,0,11.733,6.805,23.452,19.681,23.452,10.589,0,17.191-6.805,18.211-9.841a1.13,1.13,0,0,1,.939-.871.681.681,0,0,1,.6.749l-1.429,6.71c-.068.259-4.859,5.322-20.022,5.322-13.829,0-23.737-9.528-23.737-23.465S371.84,47.08,386.064,47.08Z" transform="translate(-194.408 -45.519)"/><path class="b" d="M323.238,53.4H259.974a25.244,25.244,0,0,0-2.151,3.062H239.408a.612.612,0,0,0,0,1.211H305.53a27.477,27.477,0,0,0-1.919-3.062h19.641a.612.612,0,0,0,0-1.211Z" transform="translate(-238.809 -43.236)"/><path class="b" d="M323.259,59.182H255.517a24.5,24.5,0,0,0-.953,3.239H239.429a.6.6,0,1,0,0,1.2h68.939a26.536,26.536,0,0,0-.789-3.226h15.68a.612.612,0,1,0,0-1.211Z" transform="translate(-238.83 -41.151)"/><path class="b" d="M323.238,64.58H253.931c0,.681-.068,1.361-.068,2.055v1.688H239.408a.612.612,0,0,0,0,1.211h69.239c.1-.966.15-1.946.15-2.913v-.83h14.468a.612.612,0,0,0,0-1.211h0Z" transform="translate(-238.809 -39.199)"/><path class="b" d="M323.259,70.124H254.428a26.854,26.854,0,0,0,1.171,4.083h-16.17a.6.6,0,0,0,0,1.2h67.2a27.219,27.219,0,0,0,1.361-4.083h15.258a.612.612,0,0,0,0-1.211h0Z" transform="translate(-238.83 -37.203)"/><path class="b" d="M323.259,75.65H257.15a27.018,27.018,0,0,0,2.981,4.451h-20.7a.6.6,0,1,0,0,1.2h62.093a27.616,27.616,0,0,0,3.321-4.424h18.416a.612.612,0,0,0,0-1.211Z" transform="translate(-238.83 -35.202)"/><path class="b" d="M316.817,81.184H256.67a27.467,27.467,0,0,0,35.035,1.2H316.83a.612.612,0,0,0,0-1.211h0Z" transform="translate(-232.388 -33.209)"/><path class="b" d="M239.429,52.817h60.16a27.662,27.662,0,0,0-3.743-2.722h27.426a.613.613,0,0,0,.612-.6.6.6,0,0,0-.612-.6h-29.59a27.453,27.453,0,0,0-29.127,2.8H239.429a.6.6,0,0,0-.6.6.613.613,0,0,0,.6.613h0Z" transform="translate(-238.83 -45.92)"/><path class="b" d="M418.011,60.437h-4.083l-.667,1.769H411.9l3.307-8.316h1.565l3.28,8.316h-1.361Zm-3.716-1.1h3.362l-1.674-4.4Z" transform="translate(-176.335 -43.059)"/><path class="b" d="M419.652,55.793v6.424H418.4V53.86h1.279l4.532,6.234V53.86h1.252v8.357h-1.211Z" transform="translate(-173.988 -43.07)"/><path class="b" d="M430.211,60.437h-4.083l-.667,1.769H424.1l3.307-8.316h1.552l3.294,8.316h-1.361Zm-3.716-1.1h3.348l-1.661-4.4Z" transform="translate(-171.93 -43.059)"/><path class="b" d="M430.6,53.86h1.252v7.214h3.77v1.143H430.6Z" transform="translate(-169.583 -43.07)"/><path class="b" d="M436.643,58.692,433.39,53.86h1.429l2.45,3.716,2.4-3.716h1.456l-3.239,4.832v3.525h-1.252Z" transform="translate(-168.576 -43.07)"/><path class="b" d="M439.46,61.155l4.464-6.207H439.46V53.86h6.07v1.021l-4.464,6.193h4.573v1.143h-6.166Z" transform="translate(-166.384 -43.07)"/><path class="b" d="M444.72,53.86h5.594v1.089h-4.342v2.436h4.247v1.1h-4.247v2.586h4.342v1.143H444.72Z" transform="translate(-164.484 -43.07)"/><path class="b" d="M414.686,62.889H412.1V61.8h6.4v1.089h-2.572v7.227h-1.239Z" transform="translate(-176.263 -40.203)"/><path class="b" d="M423.283,66.4h-4.614v3.716H417.43V61.8h1.239v3.484h4.6V61.8h1.252v8.316h-1.252Z" transform="translate(-174.339 -40.203)"/><path class="b" d="M423.84,61.8h5.567v1.089h-4.315v2.436h4.247v1.1h-4.247v2.586h4.315v1.1H423.84Z" transform="translate(-172.024 -40.203)"/><path class="b" d="M412.52,69.74h5.594v1.089h-4.342v2.436h4.247v1.1h-4.247v3.689H412.52Z" transform="translate(-176.112 -37.336)"/><path class="b" d="M417.317,69.74h1.239v5.009a2.246,2.246,0,1,0,4.478,0V69.74h1.252v5.05a3.5,3.5,0,1,1-7,0Z" transform="translate(-174.389 -37.336)"/><path class="b" d="M425.682,70.829H423.11V69.74h6.4v1.089h-2.572v7.227h-1.252Z" transform="translate(-172.288 -37.336)"/><path class="b" d="M428.387,69.74h1.252v5.009a2.246,2.246,0,1,0,4.478,0V69.74h1.239v5.05a3.5,3.5,0,1,1-7,0Z" transform="translate(-170.392 -37.336)"/><path class="b" d="M437.494,74.847h-1.565V78.06H434.69V69.743h3.5A2.477,2.477,0,0,1,440.91,72.3a2.328,2.328,0,0,1-2.082,2.436l2.137,3.321h-1.456Zm.531-4.015h-2.082v2.913h2.082a1.443,1.443,0,0,0,1.606-1.361,1.47,1.47,0,0,0-1.293-1.62Z" transform="translate(-168.106 -37.339)"/><path class="b" d="M440.144,69.74h5.58v1.089h-4.4v2.436h4.26v1.1h-4.26V76.9h4.342V78H440.09Z" transform="translate(-166.156 -37.336)"/></g></svg>