<svg xmlns="http://www.w3.org/2000/svg" width="218.001" height="67" viewBox="0 0 218.001 67"><defs><style>.a,.d{fill:#00b2ae;}.b{opacity:0.15;}.c{fill:#fff;}.d{font-size:20px;font-family:Poppins-SemiBold, Poppins;letter-spacing:0.15em;font-weight:600;}.e{fill:#c90d41;font-family:Poppins-Bold, Poppins;font-weight:700;}.f{fill:#484265;font-family:Poppins-Regular, Poppins;font-weight:400;}</style></defs><g transform="translate(-170.999 -26.999)"><g transform="translate(171 27)"><rect class="a" width="67" height="67" rx="19" transform="translate(0 -0.001)"/><g transform="translate(10.069 14.012)"><g class="b" transform="translate(2.895 0)"><g transform="translate(0 0)"><path class="c" d="M3.783,16.376c-1.061,2.082-1.648,3.829.764,5.406,0-1.087.037-1.895-.006-2.7C4.076,10.406,11.319,1.287,21.334.159A19.366,19.366,0,0,1,39,6.853c1.51,1.705,1.45,1.939-.446,3.156-.837.538-1.693,1.059-2.6,1.628-.732-.81-1.371-1.574-2.069-2.279a13.911,13.911,0,0,0-15.851-2.9A14.259,14.259,0,0,0,9.907,20.723c.237,2.339.587,2.47,2.819,2.294,10.313-.81,19.772-4.257,28.8-9.091a6.989,6.989,0,0,1,.966-.33,15.6,15.6,0,0,1,.863,7.431A19.5,19.5,0,0,1,7.047,28.916a5.213,5.213,0,0,0-2.871-2.594C1.142,25.181-.172,23.27.012,20.74a5.178,5.178,0,0,1,2.293-3.894A6.462,6.462,0,0,1,3.783,16.376Zm9.317,11.5c2.824,4.341,9.463,6.413,14.84,4.8,4.926-1.476,9.482-6.485,9.441-10.494C29.777,25.976,21.832,28.212,13.1,27.879Z" transform="translate(0.005 0.002)"/></g></g><g transform="translate(0 0)"><g transform="translate(0 0)"><path class="c" d="M3.834,16.376C2.773,18.458,2.186,20.2,4.6,21.782c0-1.087.037-1.895-.006-2.7C4.127,10.406,11.37,1.287,21.385.159a19.366,19.366,0,0,1,17.67,6.694c1.51,1.705,1.45,1.939-.446,3.156-.837.538-1.693,1.059-2.6,1.628-.732-.81-1.371-1.574-2.069-2.279a13.911,13.911,0,0,0-15.851-2.9A14.259,14.259,0,0,0,9.957,20.723c.237,2.339.587,2.47,2.819,2.294,10.313-.81,19.772-4.257,28.8-9.091a6.989,6.989,0,0,1,.966-.33,15.6,15.6,0,0,1,.863,7.431A19.5,19.5,0,0,1,7.1,28.916a9.048,9.048,0,0,0-1.434-2.393,3.379,3.379,0,0,0-1.04-.423C1.59,24.959-.122,23.27.063,20.74a5.178,5.178,0,0,1,2.293-3.894A6.462,6.462,0,0,1,3.834,16.376Zm9.317,11.5c2.824,4.341,9.463,6.413,14.84,4.8,4.926-1.476,9.482-6.485,9.441-10.494C29.827,25.976,21.883,28.212,13.151,27.879Z" transform="translate(-0.049 0.002)"/></g></g></g></g><g transform="translate(244.5 46.25)"><text class="d" transform="translate(72.5 20.75)"><tspan x="-71.81" y="0">Gifti</tspan><tspan class="e" y="0"> </tspan><tspan class="f" y="0">Global</tspan></text></g></g></svg>