<svg xmlns="http://www.w3.org/2000/svg" width="39.621" height="39.621" viewBox="0 0 39.621 39.621"><defs><style>.a{fill:#fff;}</style></defs><path class="a" d="M7.429,9.905H2.476A2.479,2.479,0,0,1,0,7.429V2.476A2.479,2.479,0,0,1,2.476,0H7.429A2.479,2.479,0,0,1,9.905,2.476V7.429A2.479,2.479,0,0,1,7.429,9.905ZM2.476,1.651a.827.827,0,0,0-.825.825V7.429a.827.827,0,0,0,.825.825H7.429a.827.827,0,0,0,.825-.825V2.476a.827.827,0,0,0-.825-.825Z"/><path class="a" d="M7.429,18.905H2.476A2.479,2.479,0,0,1,0,16.429V11.476A2.479,2.479,0,0,1,2.476,9H7.429a2.479,2.479,0,0,1,2.476,2.476v4.953A2.479,2.479,0,0,1,7.429,18.905ZM2.476,10.651a.827.827,0,0,0-.825.825v4.953a.827.827,0,0,0,.825.825H7.429a.827.827,0,0,0,.825-.825V11.476a.827.827,0,0,0-.825-.825Z" transform="translate(0 5.858)"/><path class="a" d="M7.429,27.905H2.476A2.479,2.479,0,0,1,0,25.429V20.476A2.479,2.479,0,0,1,2.476,18H7.429a2.479,2.479,0,0,1,2.476,2.476v4.953A2.479,2.479,0,0,1,7.429,27.905ZM2.476,19.651a.827.827,0,0,0-.825.825v4.953a.827.827,0,0,0,.825.825H7.429a.827.827,0,0,0,.825-.825V20.476a.827.827,0,0,0-.825-.825Z" transform="translate(0 11.716)"/><path class="a" d="M16.429,9.905H11.476A2.479,2.479,0,0,1,9,7.429V2.476A2.479,2.479,0,0,1,11.476,0h4.953a2.479,2.479,0,0,1,2.476,2.476V7.429A2.479,2.479,0,0,1,16.429,9.905ZM11.476,1.651a.827.827,0,0,0-.825.825V7.429a.827.827,0,0,0,.825.825h4.953a.827.827,0,0,0,.825-.825V2.476a.827.827,0,0,0-.825-.825Z" transform="translate(5.858)"/><path class="a" d="M16.429,18.905H11.476A2.479,2.479,0,0,1,9,16.429V11.476A2.479,2.479,0,0,1,11.476,9h4.953a2.479,2.479,0,0,1,2.476,2.476v4.953A2.479,2.479,0,0,1,16.429,18.905Zm-4.953-8.254a.827.827,0,0,0-.825.825v4.953a.827.827,0,0,0,.825.825h4.953a.827.827,0,0,0,.825-.825V11.476a.827.827,0,0,0-.825-.825Z" transform="translate(5.858 5.858)"/><path class="a" d="M16.429,27.905H11.476A2.479,2.479,0,0,1,9,25.429V20.476A2.479,2.479,0,0,1,11.476,18h4.953a2.479,2.479,0,0,1,2.476,2.476v4.953A2.479,2.479,0,0,1,16.429,27.905Zm-4.953-8.254a.827.827,0,0,0-.825.825v4.953a.827.827,0,0,0,.825.825h4.953a.827.827,0,0,0,.825-.825V20.476a.827.827,0,0,0-.825-.825Z" transform="translate(5.858 11.716)"/><path class="a" d="M25.429,9.905H20.476A2.479,2.479,0,0,1,18,7.429V2.476A2.479,2.479,0,0,1,20.476,0h4.953a2.479,2.479,0,0,1,2.476,2.476V7.429A2.479,2.479,0,0,1,25.429,9.905ZM20.476,1.651a.827.827,0,0,0-.825.825V7.429a.827.827,0,0,0,.825.825h4.953a.827.827,0,0,0,.825-.825V2.476a.827.827,0,0,0-.825-.825Z" transform="translate(11.716)"/><path class="a" d="M25.429,18.905H20.476A2.479,2.479,0,0,1,18,16.429V11.476A2.479,2.479,0,0,1,20.476,9h4.953a2.479,2.479,0,0,1,2.476,2.476v4.953A2.479,2.479,0,0,1,25.429,18.905Zm-4.953-8.254a.827.827,0,0,0-.825.825v4.953a.827.827,0,0,0,.825.825h4.953a.827.827,0,0,0,.825-.825V11.476a.827.827,0,0,0-.825-.825Z" transform="translate(11.716 5.858)"/><path class="a" d="M25.429,27.905H20.476A2.479,2.479,0,0,1,18,25.429V20.476A2.479,2.479,0,0,1,20.476,18h4.953a2.479,2.479,0,0,1,2.476,2.476v4.953A2.479,2.479,0,0,1,25.429,27.905Zm-4.953-8.254a.827.827,0,0,0-.825.825v4.953a.827.827,0,0,0,.825.825h4.953a.827.827,0,0,0,.825-.825V20.476a.827.827,0,0,0-.825-.825Z" transform="translate(11.716 11.716)"/></svg>