<svg xmlns="http://www.w3.org/2000/svg" width="64.705" height="40.93" viewBox="0 0 64.705 40.93"><g transform="translate(0 -94.062)"><g transform="translate(0 94.062)"><g transform="translate(0 0)"><path d="M60.176,111.414l-1.676-6.7a1.013,1.013,0,0,0,.8-.991V102.64a4.26,4.26,0,0,0-4.255-4.255H47.415V96.156a2.1,2.1,0,0,0-2.094-2.094H6.416a2.1,2.1,0,0,0-2.094,2.094v18.371a1.013,1.013,0,1,0,2.026,0V96.156a.067.067,0,0,1,.067-.067h38.9a.067.067,0,0,1,.067.067v18.372a1.013,1.013,0,1,0,2.026,0v-1.149H59.371a3.315,3.315,0,0,1,3.148,2.3h-3.15a1.013,1.013,0,0,0-1.013,1.013v2.161a3.178,3.178,0,0,0,3.174,3.174h1.148v4.458H60.03a6.414,6.414,0,0,0-12.128,0h-.488V118.85a1.013,1.013,0,0,0-2.026,0v7.632H24.368a6.414,6.414,0,0,0-12.128,0H6.416a.067.067,0,0,1-.067-.067v-2.229h4.39a1.013,1.013,0,1,0,0-2.026H1.013a1.013,1.013,0,1,0,0,2.026h3.31v2.229a2.1,2.1,0,0,0,2.094,2.094h5.473c0,.022,0,.045,0,.067a6.416,6.416,0,0,0,12.833,0c0-.023,0-.045,0-.067H47.551c0,.022,0,.045,0,.067a6.416,6.416,0,0,0,12.833,0c0-.023,0-.045,0-.067h3.311a1.013,1.013,0,0,0,1.013-1.013V116.688A5.344,5.344,0,0,0,60.176,111.414Zm-12.761-11h7.632a2.231,2.231,0,0,1,2.229,2.229v.067H47.415Zm0,10.942v-6.619h9l1.655,6.619ZM18.3,132.966a4.39,4.39,0,1,1,4.39-4.39A4.4,4.4,0,0,1,18.3,132.966Zm35.662,0a4.39,4.39,0,1,1,4.39-4.39A4.4,4.4,0,0,1,53.966,132.966ZM62.679,120H61.531a1.15,1.15,0,0,1-1.148-1.148V117.7h2.3V120Z" transform="translate(0 -94.062)"/></g></g><g transform="translate(16.21 126.482)"><g transform="translate(0 0)"><path d="M130.361,350.6a2.094,2.094,0,1,0,2.094,2.094A2.1,2.1,0,0,0,130.361,350.6Z" transform="translate(-128.267 -350.597)"/></g></g><g transform="translate(51.872 126.482)"><g transform="translate(0 0)"><path d="M412.549,350.6a2.094,2.094,0,1,0,2.094,2.094A2.1,2.1,0,0,0,412.549,350.6Z" transform="translate(-410.455 -350.597)"/></g></g><g transform="translate(25.936 122.16)"><g transform="translate(0 0)"><path d="M221.37,316.393H206.24a1.013,1.013,0,0,0,0,2.026H221.37a1.013,1.013,0,0,0,0-2.026Z" transform="translate(-205.227 -316.393)"/></g></g><g transform="translate(2.161 117.837)"><path d="M31.083,282.188H18.115a1.013,1.013,0,0,0,0,2.026H31.083a1.013,1.013,0,0,0,0-2.026Z" transform="translate(-17.102 -282.188)"/></g><g transform="translate(18.371 103.788)"><path d="M162.229,171.319a1.013,1.013,0,0,0-1.433,0l-9.01,9.01-4.687-4.687a1.013,1.013,0,0,0-1.433,1.433l5.4,5.4a1.013,1.013,0,0,0,1.433,0l9.726-9.726A1.013,1.013,0,0,0,162.229,171.319Z" transform="translate(-145.37 -171.023)"/></g></g></svg>