<svg xmlns="http://www.w3.org/2000/svg" width="44.823" height="39.842" viewBox="0 0 44.823 39.842"><defs><style>.a{fill:#3f7aec;}</style></defs><path class="a" d="M41.1,23.448,44.775,7.262A1.868,1.868,0,0,0,42.954,4.98H12.389l-.713-3.487A1.868,1.868,0,0,0,9.846,0H1.868A1.868,1.868,0,0,0,0,1.868V3.113A1.868,1.868,0,0,0,1.868,4.98H7.306l5.466,26.725a4.358,4.358,0,1,0,5.217.666H34.3a4.357,4.357,0,1,0,4.949-.81l.429-1.889a1.868,1.868,0,0,0-1.821-2.282H16.973l-.509-2.49H39.276A1.868,1.868,0,0,0,41.1,23.448Z"/></svg>