<svg xmlns="http://www.w3.org/2000/svg" width="106.482" height="264.972" viewBox="0 0 106.482 264.972"><defs><style>.a{fill:none;stroke:#fff;stroke-width:2px;}.b{fill:#14578f;}.c{fill:#ed3232;}.d{fill:#ffc821;}.e{fill:#c99e1a;}.f{fill:#3d98d9;}.g{fill:#30bbed;}.h{fill:#ff7024;}</style></defs><g transform="translate(-78.669 -215.725)"><path class="a" d="M185.146,6039s-24.206,36.457-8.419,87.7" transform="translate(-26.656 -5822.296)"/><path class="a" d="M88.731,6038s-29.819,103.812,13.331,222.413" transform="translate(1 -5821.998)"/><g transform="translate(131.829 288.326)"><g transform="translate(2.888 1.981)"><path class="b" d="M165.393,395.468l-30.411-9.143,2.876-28.46-9.809-7.039,1.589-2.146L140.7,356.62l-.478,4.741,37.2,11.281Zm-27.507-11.046,26.143,7.862,9.5-18.036-33.582-10.195Z" transform="translate(-128.048 -348.681)"/></g><g transform="translate(15.563 17.39)"><rect class="b" width="23.174" height="2.655" transform="translate(0 22.703) rotate(-78.428)"/></g><g transform="translate(21.413 19.439)"><rect class="b" width="23.074" height="2.656" transform="matrix(0.25, -0.968, 0.968, 0.25, 0, 22.343)"/></g><g transform="translate(26.984 21.484)"><rect class="b" width="23.045" height="2.655" transform="translate(0 21.861) rotate(-71.556)"/></g><g transform="translate(32.629 24.499)"><rect class="b" width="22.278" height="2.656" transform="translate(0 20.441) rotate(-66.568)"/></g><g transform="translate(12.416 22.169)"><rect class="b" width="2.698" height="34.847" transform="matrix(0.292, -0.956, 0.956, 0.292, 0, 2.58)"/></g><g transform="translate(11.738 28.872)"><rect class="b" width="2.697" height="32.314" transform="translate(0 2.58) rotate(-73.004)"/></g><g transform="translate(2.347 37.071)"><path class="b" d="M164,415.6l-36.725-11.046.464-1.308c1.589-4.471,7.313-4.554,7.559-4.554l.014,2.658-.007-1.329.014,1.329a7.011,7.011,0,0,0-4.261,1.564l33.73,10.146Z" transform="translate(-127.277 -398.694)"/></g><g transform="translate(3.916 43.868)"><path class="c" d="M131.562,412.448a3.316,3.316,0,0,0,2.433,4.028,3.389,3.389,0,0,0,4.3-2.007,3.316,3.316,0,0,0-2.433-4.028A3.389,3.389,0,0,0,131.562,412.448Z" transform="translate(-130.086 -408.946)"/><path class="b" d="M133.021,417.185A4.64,4.64,0,0,1,129.7,411.5a4.742,4.742,0,0,1,5.984-2.893,4.645,4.645,0,0,1,3.326,5.689A4.747,4.747,0,0,1,133.021,417.185Zm1.877-6.042a2.041,2.041,0,0,0-2.616,1.128,2,2,0,0,0,1.533,2.374,2.035,2.035,0,0,0,2.616-1.128A2,2,0,0,0,134.9,411.143Z" transform="translate(-129.513 -408.381)"/></g><g transform="translate(28.669 51.315)"><path class="c" d="M166.847,423.062a3.306,3.306,0,0,0,2.426,4.028,3.389,3.389,0,0,0,4.3-2.007,3.312,3.312,0,0,0-2.426-4.028A3.383,3.383,0,0,0,166.847,423.062Z" transform="translate(-165.368 -419.56)"/><path class="b" d="M168.306,427.8a4.65,4.65,0,0,1-3.326-5.689,4.747,4.747,0,0,1,5.991-2.893,4.64,4.64,0,0,1,3.319,5.689A4.742,4.742,0,0,1,168.306,427.8Zm1.87-6.042a2.047,2.047,0,0,0-2.616,1.128,2,2,0,0,0,1.533,2.374,2.052,2.052,0,0,0,2.623-1.128A2.011,2.011,0,0,0,170.176,421.757Z" transform="translate(-164.794 -418.995)"/></g><path class="c" d="M132.509,350.019a2.168,2.168,0,0,1,.738,2.983h0a2.236,2.236,0,0,1-3.108.242l-5.133-3.654a2.175,2.175,0,0,1-.738-2.99h0a2.243,2.243,0,0,1,3.108-.235Z" transform="translate(-123.932 -345.857)"/><path class="c" d="M183.472,379.676a1.559,1.559,0,0,1-1.934,1.01L145,369.7l.3-3.1,37.147,11.178a1.521,1.521,0,0,1,1.027,1.9Z" transform="translate(-130.217 -352.045)"/></g><g transform="translate(79.908 438.425)"><g transform="translate(0 0)"><g transform="translate(11.193 0.878)"><g transform="translate(1.683 0.293)"><path class="d" d="M460.784,281.529l31.682,5.631-1.766,4.79Z" transform="translate(-460.666 -281.195)"/><path class="e" d="M490.862,292.245,460.616,281.71l.179-.657,32.09,5.7Zm-25.97-9.769,25.546,8.892,1.505-4.085Z" transform="translate(-460.616 -281.052)"/></g><g transform="translate(1.801 0.627)"><path class="d" d="M460.784,281.529,487,282.952l.782,3.375Z" transform="translate(-460.784 -281.529)"/></g><path class="e" d="M460,281.6l-1.781-.968,28.3,1.723.841,3.627-.686.15-.723-3.124Z" transform="translate(-458.217 -280.635)"/></g><rect class="f" width="33.177" height="20.354" transform="translate(0 31.232) rotate(-70.283)"/><path class="g" d="M481.461,290.371l-11.178,30.311,8.845,3.08s10.369,4.929,14.241-5.561,9.839-20.259-2.082-24.415S481.461,290.371,481.461,290.371Z" transform="translate(-450.624 -282.648)"/><path class="f" d="M502.561,320.153a5.629,5.629,0,0,1-7.134,3.273l-5.994-2.088a5.38,5.38,0,0,1-3.368-6.933h0a5.616,5.616,0,0,1,7.127-3.273l6,2.088a5.388,5.388,0,0,1,3.368,6.934Z" transform="translate(-455.235 -288.762)"/><g transform="translate(34.309 25.146)"><g transform="translate(0.352 0.343)"><path class="h" d="M496.308,318.819a2.411,2.411,0,0,1-3.056,1.4,2.308,2.308,0,0,1-1.445-2.971,2.414,2.414,0,0,1,3.056-1.4A2.311,2.311,0,0,1,496.308,318.819Z" transform="translate(-491.666 -315.712)"/></g><path class="d" d="M492.982,320.4a2.648,2.648,0,0,1-1.658-3.409,2.766,2.766,0,0,1,3.507-1.611,2.661,2.661,0,0,1,1.658,3.409A2.774,2.774,0,0,1,492.982,320.4Zm1.611-4.375a2.054,2.054,0,0,0-2.606,1.2,1.969,1.969,0,0,0,1.233,2.532,2.057,2.057,0,0,0,2.606-1.2A1.969,1.969,0,0,0,494.594,316.025Z" transform="translate(-491.164 -315.224)"/></g></g></g></g></svg>