<svg xmlns="http://www.w3.org/2000/svg" width="154.127" height="185.718" viewBox="0 0 154.127 185.718"><defs><style>.a{fill:none;stroke:#fff;stroke-width:2px;}.b{fill:#ed3232;}.c{fill:#ffc821;}.d{fill:#82a4e4;}.e{fill:#3d98d9;}.f{fill:#14578f;}.g{fill:#0e3d63;}.h{fill:#b82727;}.i{fill:#e8e0d9;}</style></defs><g transform="translate(-1664 -216.313)"><path class="a" d="M1658.4,6039s-19.482,85.849-8.434,155.654" transform="translate(40.102 -5822.231)"/><path class="a" d="M1830,6039s24.991,49.043,18.4,112.715" transform="translate(-48.678 -5822.231)"/><g transform="translate(1664 359.094)"><g transform="translate(0)"><path class="b" d="M153.595,48.135,154.906,73.8s.132,3.764,2.255,4.042l29.451,3.867s1.708,1.121,3.337-3.127,7.817-24.648,7.817-24.648Z" transform="translate(-152.527 -38.907)"/><rect class="c" width="8.25" height="44.9" transform="matrix(0.129, -0.992, 0.992, 0.129, 0, 17.471)"/><path class="d" d="M178.531,80.639a.946.946,0,0,1-1,.891h0a.953.953,0,0,1-.74-1.121L178.7,65.59a.95.95,0,0,1,1-.891h0a.957.957,0,0,1,.746,1.121Z" transform="translate(-157.934 -42.769)"/><path class="d" d="M183.384,81.271a.959.959,0,0,1-1,.9h0a.964.964,0,0,1-.746-1.121l1.918-14.818a.956.956,0,0,1,1-.9h0a.963.963,0,0,1,.74,1.127Z" transform="translate(-159.065 -42.917)"/><path class="d" d="M188.474,81.981a.943.943,0,0,1-1.022.861h0a.967.967,0,0,1-.722-1.139l2.237-14.769a.944.944,0,0,1,1.022-.867h0a.962.962,0,0,1,.716,1.145Z" transform="translate(-160.253 -43.087)"/><path class="d" d="M193.008,82.617a.933.933,0,0,1-1.046.824h0a.978.978,0,0,1-.685-1.17l2.64-14.7a.945.945,0,0,1,1.046-.83h0a.983.983,0,0,1,.685,1.176Z" transform="translate(-161.312 -43.244)"/><path class="d" d="M197.5,83.242a.922.922,0,0,1-1.064.788h0a.982.982,0,0,1-.655-1.194l3.018-14.612a.922.922,0,0,1,1.064-.794h0a.985.985,0,0,1,.655,1.194Z" transform="translate(-162.359 -43.402)"/><path class="d" d="M164.469,78.706a.978.978,0,0,1-.962.952h0a.945.945,0,0,1-.794-1.079l1.263-14.885a.964.964,0,0,1,.962-.945h0a.939.939,0,0,1,.794,1.073Z" transform="translate(-154.653 -42.315)"/><path class="d" d="M159.991,78.054a.98.98,0,0,1-.938.988h0a.934.934,0,0,1-.824-1.048l.848-14.9a.979.979,0,0,1,.938-.982h0a.932.932,0,0,1,.824,1.042Z" transform="translate(-153.608 -42.166)"/><path class="d" d="M169.143,79.346a.967.967,0,0,1-.974.933h0a.948.948,0,0,1-.782-1.091l1.461-14.866a.968.968,0,0,1,.98-.933h0a.949.949,0,0,1,.776,1.091Z" transform="translate(-155.743 -42.464)"/><path class="d" d="M173.583,79.991a.955.955,0,0,1-1,.891h0a.957.957,0,0,1-.74-1.121l1.912-14.818a.95.95,0,0,1,1-.891h0a.953.953,0,0,1,.74,1.121Z" transform="translate(-156.78 -42.618)"/><path class="e" d="M163.174,53.748a2.552,2.552,0,1,1-2.129-3.224A2.739,2.739,0,0,1,163.174,53.748Z" transform="translate(-153.587 -39.46)"/><path class="f" d="M161.984,51.007a1.478,1.478,0,0,1-2.279.176h0a2.036,2.036,0,0,1-.072-2.612l9.332-11.836a1.483,1.483,0,0,1,2.279-.182h0a2.052,2.052,0,0,1,.072,2.618Z" transform="translate(-153.833 -36.1)"/><path class="e" d="M199.2,58.478a2.555,2.555,0,1,0,2.886-2.564A2.752,2.752,0,0,0,199.2,58.478Z" transform="translate(-163.158 -40.717)"/><path class="f" d="M198.946,55.486a1.479,1.479,0,0,0,2.153.764h0a2.039,2.039,0,0,0,.74-2.509l-6.013-13.854a1.478,1.478,0,0,0-2.159-.758h0a2.041,2.041,0,0,0-.734,2.509Z" transform="translate(-161.663 -36.755)"/></g></g><g transform="translate(1781.322 324.514)"><path class="g" d="M364.716,126.805l2.427-.82,21.974,6.724,1.038,1.88Z" transform="translate(-353.35 -125.089)"/><path class="f" d="M361.259,127.054l25.439,7.784-7.961,30.372-28.844-8.826Z" transform="translate(-349.893 -125.339)"/><g transform="translate(18.34)"><path class="b" d="M382.577,133.99c.327-6.5-.719-8.214-1.656-8.5l-.006-.006c-1.951-.571-5.39,4.125-6.552,5.987l-.552-.323c.456-.726,4.518-7.078,7.29-6.259l.019.006c1.694.521,2.381,3.505,2.1,9.126Z" transform="translate(-373.811 -124.817)"/></g><path class="h" d="M374.8,133.281a.924.924,0,0,0-.629-1.166.963.963,0,0,0-1.2.6.92.92,0,0,0,.622,1.166A.965.965,0,0,0,374.8,133.281Z" transform="translate(-355.264 -126.509)"/><path class="h" d="M386.289,136.8a.92.92,0,0,0-.622-1.166.965.965,0,0,0-1.206.6.925.925,0,0,0,.622,1.166A.97.97,0,0,0,386.289,136.8Z" transform="translate(-357.944 -127.329)"/><rect class="i" width="5.734" height="21.206" transform="translate(9.776 13.166) rotate(-72.437)"/></g></g></svg>