<svg xmlns="http://www.w3.org/2000/svg" width="44.346" height="44.72" viewBox="0 0 44.346 44.72"><defs><style>.a{stroke:#000;stroke-width:0.2px;}</style></defs><g transform="translate(-2.043 0.1)"><path class="a" d="M44.394,22.592H35.136V20.96a1.108,1.108,0,0,0-1.107-1.107h-7.48a1.108,1.108,0,0,0-1.107,1.107v1.631H24.23V16.52a2.161,2.161,0,0,0-2.159-2.159H19.433V2.605a1.3,1.3,0,0,0-1.294-1.294H17.13V1.018A1.019,1.019,0,0,0,16.113,0H11.051a1.019,1.019,0,0,0-1.018,1.018v.294H9.024A1.3,1.3,0,0,0,7.73,2.605V14.361H4.3A2.161,2.161,0,0,0,2.143,16.52v6.718a.654.654,0,0,0,1.307,0V16.52a.853.853,0,0,1,.852-.852h17.77a.853.853,0,0,1,.852.852V39.345a.853.853,0,0,1-.852.852H4.3a.853.853,0,0,1-.852-.852V25.852a.654.654,0,0,0-1.307,0V39.345A2.161,2.161,0,0,0,4.3,41.5H5.631v2.36a.654.654,0,1,0,1.307,0V41.5H14.29v1.121a1.9,1.9,0,0,0,1.895,1.9H44.394a1.9,1.9,0,0,0,1.895-1.9V24.487A1.9,1.9,0,0,0,44.394,22.592ZM11.34,1.307h4.483V2.623H11.34Zm-2.3,1.311h1v.294A1.019,1.019,0,0,0,11.051,3.93h5.062A1.019,1.019,0,0,0,17.13,2.912V2.619h1V14.361H9.038ZM39.677,23.9V43.12H38.369V23.9ZM24.23,39.345V23.9h6.059a.654.654,0,0,0,0-1.307H26.75V21.161h7.08v1.431H32.9a.654.654,0,1,0,0,1.307h4.158V43.212H20.743V41.5h1.329a2.161,2.161,0,0,0,2.159-2.159ZM15.6,42.625V41.5h3.839v1.709H16.185A.589.589,0,0,1,15.6,42.625Zm29.385,0a.588.588,0,0,1-.588.588h-3.41V23.9h3.41a.588.588,0,0,1,.588.588Z"/><path class="a" d="M274.535,389.414h4.829a1.467,1.467,0,0,0,1.465-1.465v-1.9a1.467,1.467,0,0,0-1.465-1.465h-4.829a1.467,1.467,0,0,0-1.465,1.465v1.9A1.467,1.467,0,0,0,274.535,389.414Zm-.158-3.367a.158.158,0,0,1,.158-.158h4.829a.158.158,0,0,1,.158.158v1.9a.158.158,0,0,1-.158.158h-4.829a.158.158,0,0,1-.158-.158Z" transform="translate(-247.317 -351.066)"/><path class="a" d="M52.07,229.419V211.634a.654.654,0,1,0-1.307,0v17.785a.654.654,0,1,0,1.307,0Z" transform="translate(-44.383 -192.594)"/><path class="a" d="M99.142,229.419V211.634a.654.654,0,1,0-1.307,0v17.785a.654.654,0,1,0,1.307,0Z" transform="translate(-87.353 -192.594)"/><path class="a" d="M146.213,229.419V211.634a.654.654,0,1,0-1.307,0v17.785a.654.654,0,1,0,1.307,0Z" transform="translate(-130.322 -192.594)"/><path class="a" d="M193.284,229.419V211.634a.654.654,0,0,0-1.307,0v17.785a.654.654,0,1,0,1.307,0Z" transform="translate(-173.291 -192.594)"/></g></svg>