<svg xmlns="http://www.w3.org/2000/svg" width="73.791" height="74.897" viewBox="0 0 73.791 74.897"><defs><style>.a{fill:#00b2ae;}</style></defs><g transform="translate(-2.003 -2)"><path d="M45.132,32.2a3.7,3.7,0,0,0-4.2.711l-1.916,1.917a3.792,3.792,0,0,0-4.195.7l-1.744,1.744L27.4,31.6a4.423,4.423,0,0,0-6.107,0,4.318,4.318,0,0,0,0,6.107L35.432,51.841l-5.569-1.113a5,5,0,0,0-2.419,9.7l12.418,3.725a12.494,12.494,0,0,0,3.59.527H47.6a9.961,9.961,0,0,1,7.09,2.936l2.929,2.92,1.744-1.745-2.92-2.92a12.411,12.411,0,0,0-8.835-3.659H43.455a9.983,9.983,0,0,1-2.881-.423L28.157,58.067a2.537,2.537,0,0,1,1.226-4.916l9.56,1.912a1.234,1.234,0,0,0,1.11-2.083L23.047,35.967a1.851,1.851,0,0,1,0-2.618,1.9,1.9,0,0,1,2.617,0L38.313,46l1.745-1.749-5.234-5.235L36.57,37.27a1.261,1.261,0,0,1,1.743,0l6.108,6.116,1.745-1.745L40.93,36.4l1.746-1.746a1.267,1.267,0,0,1,1.745,0l6.107,6.107,1.745-1.745-5.235-5.234,1.745-1.751a1.234,1.234,0,0,1,1.746,0l9.42,9.421a10.06,10.06,0,0,1,2.876,5.982A12.546,12.546,0,0,0,66.4,54.894l3.436,3.43,1.744-1.745-3.425-3.425a10.075,10.075,0,0,1-2.875-5.982,12.534,12.534,0,0,0-3.588-7.455L52.272,30.3a3.7,3.7,0,0,0-5.235,0Z" transform="translate(4.213 6.36)"/><path class="a" d="M16.456,36.915a1.234,1.234,0,0,0,1.435,0L25.805,31.2l7.914,5.712a1.234,1.234,0,0,0,1.9-1.351L32.976,26.6l7.059-4.457a1.234,1.234,0,0,0-.659-2.277H30.3l-3.34-9.063a1.234,1.234,0,0,0-2.314,0l-3.34,9.063H12.234a1.234,1.234,0,0,0-.659,2.277L18.635,26.6l-2.649,8.953a1.234,1.234,0,0,0,.47,1.357ZM16.5,22.337h5.675a1.234,1.234,0,0,0,1.157-.807L25.805,14.8l2.479,6.728a1.234,1.234,0,0,0,1.157.807h5.675l-4.243,2.68a1.234,1.234,0,0,0-.528,1.392l1.888,6.383-5.706-4.119a1.234,1.234,0,0,0-1.443,0l-5.706,4.121,1.888-6.385a1.234,1.234,0,0,0-.524-1.393Z" transform="translate(2.103 1.87)"/><path d="M27.908,53.817V51.349A23.414,23.414,0,1,1,50.88,32.6l2.418.493a25.908,25.908,0,1,0-25.39,20.727Z" transform="translate(0 0)"/><path d="M32,9h2.467v2.467H32Z" transform="translate(7.011 1.636)"/><path d="M30,11h2.467v2.467H30Z" transform="translate(6.544 2.104)"/><path d="M34,11h2.467v2.467H34Z" transform="translate(7.479 2.104)"/><path d="M32,13h2.467v2.467H32Z" transform="translate(7.011 2.571)"/><path d="M48,20h2.467v2.467H48Z" transform="translate(10.751 4.207)"/><path d="M46,22h2.467v2.467H46Z" transform="translate(10.284 4.675)"/><path d="M50,22h2.467v2.467H50Z" transform="translate(11.219 4.675)"/><path d="M48,24h2.467v2.467H48Z" transform="translate(10.751 5.142)"/><path d="M47,13h2.467v2.467H47Z" transform="translate(10.517 2.571)"/><path d="M34,21h2.467v2.467H34Z" transform="translate(7.479 4.441)"/></g></svg>