<svg xmlns="http://www.w3.org/2000/svg" width="43.833" height="43.833" viewBox="0 0 43.833 43.833"><defs><style>.a,.b{fill:none;stroke:#000;stroke-linejoin:round;stroke-miterlimit:10;stroke-width:2px;}.a{stroke-linecap:round;}.b{stroke-linecap:square;}</style></defs><path class="a" d="M25.516,12.732a4.363,4.363,0,0,0,2.631-2.7h8.906a4.363,4.363,0,0,0,2.631,2.7" transform="translate(1.123 0.414)"/><path class="a" d="M25.516,38.42a4.363,4.363,0,0,1,2.631,2.7h8.906a4.363,4.363,0,0,1,2.631-2.7" transform="translate(1.123 1.714)"/><path class="b" d="M23.582,34.087a2.707,2.707,0,0,0,2.7,2.7H39.1a2.707,2.707,0,0,0,2.7-2.7V17.894a2.707,2.707,0,0,0-2.7-2.7H26.281a2.707,2.707,0,0,0-2.7,2.7" transform="translate(1.034 0.65)"/><path class="a" d="M11.969,37.773h4.048" transform="translate(0.502 1.684)"/><path class="a" d="M23.763,6.162H4.871V35.849" transform="translate(0.177 0.236)"/><path class="a" d="M20.389,34.549H4.871" transform="translate(0.177 1.537)"/><path class="a" d="M23.265,42.832H3.7a2.707,2.707,0,0,1-2.7-2.7V3.7A2.707,2.707,0,0,1,3.7,1H25.29a2.707,2.707,0,0,1,2.7,2.7V6.4"/></svg>