<svg xmlns="http://www.w3.org/2000/svg" width="48.584" height="47.046" viewBox="0 0 48.584 47.046"><defs><style>.a{stroke:#000;stroke-width:0.2px;}</style></defs><g transform="translate(-7.901 -15.882)"><path class="a" d="M118.153,160.587c3.442,0,6.243-2.275,6.243-5.072a.78.78,0,1,0-1.561,0c0,1.737-1.69,3.182-3.9,3.462V156.5a1.765,1.765,0,0,0,.237-.142l1.324-.945h0a1.89,1.89,0,0,0,.78-1.541,1.836,1.836,0,0,0-1.8-1.869h-2.649a1.836,1.836,0,0,0-1.8,1.869,1.89,1.89,0,0,0,.78,1.541l1.324.945a1.754,1.754,0,0,0,.237.142v2.477c-2.212-.279-3.9-1.725-3.9-3.462a.78.78,0,1,0-1.561,0C111.91,158.311,114.711,160.587,118.153,160.587Zm-1.435-6.445a.332.332,0,0,1-.126-.27.283.283,0,0,1,.236-.308h2.649a.283.283,0,0,1,.236.308.332.332,0,0,1-.126.27l-1.324.945a.181.181,0,0,1-.221,0Z" transform="translate(-93.773 -122.732)"/><circle class="a" cx="0.78" cy="0.78" r="0.78" transform="translate(28.282 27.71)"/><circle class="a" cx="0.78" cy="0.78" r="0.78" transform="translate(18.917 27.71)"/><path class="a" d="M355.122,254.243A3.122,3.122,0,1,0,352,251.122,3.122,3.122,0,0,0,355.122,254.243Zm0-4.682a1.561,1.561,0,1,1-1.561,1.561A1.561,1.561,0,0,1,355.122,249.561Z" transform="translate(-310.443 -209.364)"/><path class="a" d="M55.6,46.44H50.922V36.295a.776.776,0,0,0-.141-.447h0l-5.463-7.8a.78.78,0,0,0-1.279,0l-5.463,7.8h0a.776.776,0,0,0-.141.447v4.884a12.325,12.325,0,0,0-4.255-3.548,11.59,11.59,0,0,0,2.685-7.578,12.328,12.328,0,0,0-.572-3.752A5.463,5.463,0,1,0,28.869,19a15.632,15.632,0,0,0-8.977,0,5.463,5.463,0,1,0-7.425,7.3,12.328,12.328,0,0,0-.573,3.752,11.591,11.591,0,0,0,2.685,7.578,11.68,11.68,0,0,0-6.5,9.476c0,.01,0,.02,0,.029L8,48.206a.75.75,0,0,0,0,.106,4.692,4.692,0,0,0,3.116,4.1,7.673,7.673,0,0,0-.777,3.389c0,3.873,2.8,7.023,6.243,7.023a5.955,5.955,0,0,0,4.664-2.362,6.553,6.553,0,0,0,6.279,0,5.955,5.955,0,0,0,4.664,2.362,6.226,6.226,0,0,0,5.59-3.9H55.6a.78.78,0,0,0,.78-.78V47.22A.78.78,0,0,0,55.6,46.44ZM44.679,29.852l3.964,5.663H40.715ZM40,37.075h9.365V46.44H40.59A12.7,12.7,0,0,0,40,44.1ZM37.656,52.41a4.712,4.712,0,0,0,1.915-1.288h1.206v3.122h-2.5a7.528,7.528,0,0,0-.622-1.833Zm1.47-5.151.07,1a3.128,3.128,0,0,1-2.419,2.784,6.033,6.033,0,0,0-3.821-2.208A13.58,13.58,0,0,0,30,40.682,11.408,11.408,0,0,0,33.025,38.8a10.259,10.259,0,0,1,6.1,8.462ZM33.745,17.565a3.9,3.9,0,0,1,1.969,7.272,10.893,10.893,0,0,0-2.185-3.067,11.288,11.288,0,0,0-3.193-2.2A3.911,3.911,0,0,1,33.745,17.565Zm-22.631,3.9a3.9,3.9,0,0,1,7.312-1.9,11.285,11.285,0,0,0-3.193,2.2,10.89,10.89,0,0,0-2.185,3.067A3.911,3.911,0,0,1,11.114,21.467Zm5.213,1.415a11.182,11.182,0,0,1,8.053-2.976,11.182,11.182,0,0,1,8.053,2.976,9.927,9.927,0,0,1,2.872,7.169,9.927,9.927,0,0,1-2.872,7.169A11.182,11.182,0,0,1,24.38,40.2a11.182,11.182,0,0,1-8.053-2.976,9.927,9.927,0,0,1-2.872-7.169A9.927,9.927,0,0,1,16.327,22.883ZM9.564,48.26l.07-1a10.26,10.26,0,0,1,6.1-8.462,11.41,11.41,0,0,0,3.043,1.891,13.635,13.635,0,0,0-2.957,8.147A6.035,6.035,0,0,0,12,51.047,3.128,3.128,0,0,1,9.564,48.26Zm7.021,13.007C14,61.267,11.9,58.816,11.9,55.8s2.1-5.463,4.682-5.463,4.682,2.45,4.682,5.463S19.167,61.267,16.585,61.267Zm7.8-1.561a5.043,5.043,0,0,1-2.31-.569,7.681,7.681,0,0,0,.749-3.333c0-3.568-2.378-6.521-5.444-6.964a11.676,11.676,0,0,1,3-7.6,15.81,15.81,0,0,0,8.007,0,11.622,11.622,0,0,1,3,7.6c-3.067.442-5.445,3.4-5.445,6.964a7.68,7.68,0,0,0,.749,3.333A5.043,5.043,0,0,1,24.389,59.706Zm7.8,1.561c-2.582,0-4.682-2.451-4.682-5.463s2.1-5.463,4.682-5.463,4.682,2.45,4.682,5.463S34.775,61.267,32.193,61.267ZM38.436,55.8h3.122a.78.78,0,0,0,.78-.78V50.342a.78.78,0,0,0-.78-.78H40.5a4.645,4.645,0,0,0,.258-1.249.781.781,0,0,0,0-.106L40.743,48H43.9v9.365h-5.62a7.849,7.849,0,0,0,.157-1.561Zm16.388,1.561H45.459V48h9.365Z" transform="translate(0)"/><path class="a" d="M408.781,366.244h4.682a.78.78,0,0,0,.7-1.129l-2.341-4.682a.78.78,0,0,0-1.4,0l-2.341,4.682a.78.78,0,0,0,.7,1.129Zm2.341-3.718,1.078,2.157h-2.157Z" transform="translate(-360.98 -310.439)"/></g></svg>