<svg xmlns="http://www.w3.org/2000/svg" width="16.309" height="19.933" viewBox="0 0 16.309 19.933"><defs><style>.a{fill:#00b2ae;}</style></defs><path class="a" d="M1636.154,65.812a6.342,6.342,0,0,0-6.342,6.342v1.812a.906.906,0,0,1-1.812,0V72.154a8.155,8.155,0,0,1,16.309,0v1.812a.906.906,0,0,1-1.812,0V72.154A6.342,6.342,0,0,0,1636.154,65.812Z" transform="translate(-1628 -54.939)"/><path class="a" d="M5.436,10.873a5.436,5.436,0,1,1,5.437-5.436A5.442,5.442,0,0,1,5.436,10.873Zm0-9.061A3.624,3.624,0,1,0,9.06,5.437,3.629,3.629,0,0,0,5.436,1.812Z" transform="translate(2.812)"/></svg>