<svg xmlns="http://www.w3.org/2000/svg" width="13.323" height="16.654" viewBox="0 0 13.323 16.654"><defs><style>.a{fill:#03014c;opacity:0.5;}</style></defs><path class="a" d="M6.662,0A4.168,4.168,0,0,0,2.5,4.163V5.829H1.665A1.667,1.667,0,0,0,0,7.494v7.494a1.667,1.667,0,0,0,1.665,1.665h9.992a1.667,1.667,0,0,0,1.665-1.665V7.494a1.667,1.667,0,0,0-1.665-1.665h-.833V4.163A4.168,4.168,0,0,0,6.662,0Zm-2.5,4.163a2.5,2.5,0,0,1,5,0V5.829h-5Zm7.5,10.825H7.494v-1.9a1.665,1.665,0,1,0-1.665,0v1.9H1.665V7.494h9.992l0,7.494Z"/></svg>